<svg width="306" height="115" viewBox="0 0 306 115" fill="none" xmlns="http://www.w3.org/2000/svg">
<g filter="url(#filter0_d_246_163)">
<path d="M10 22C10 16.4772 13.9655 12 18.8571 12H280.143C285.035 12 289 16.4772 289 22V92C289 97.5228 285.035 102 280.143 102H18.8571C13.9655 102 10 97.5228 10 92V22Z" fill="url(#paint0_linear_246_163)"/>
</g>
<path d="M36.866 64.4198C36.866 66.1574 38.2757 67.5671 40.0132 67.5671H41.5846V74.6429C41.5846 75.9449 42.6397 77 43.9417 77C45.2438 77 46.2988 75.9449 46.2988 74.6429V67.5626H49.491V74.6384C49.491 75.9404 50.5461 76.9955 51.8481 76.9955C53.1501 76.9955 54.2052 75.9404 54.2052 74.6384V67.5626H55.7317C57.4692 67.5626 58.879 66.1529 58.879 64.4154V48.6924H36.866V64.4198ZM32.1473 47.2647C30.4098 47.2647 29 48.6745 29 50.412V61.2726C29 63.0101 30.4098 64.4198 32.1473 64.4198C33.8848 64.4198 35.2946 63.0101 35.2946 61.2726V50.412C35.2946 48.6745 33.8848 47.2647 32.1473 47.2647ZM53.8819 36.5029L55.5342 33.7507C55.6778 33.5172 55.597 33.2164 55.368 33.0772C55.1391 32.938 54.8338 33.0144 54.6946 33.2433L52.966 36.1123C51.6146 35.6184 49.9624 35.3266 47.9331 35.3266C45.8768 35.3266 44.1977 35.6274 42.8328 36.1347L41.0953 33.2388C40.9516 33.0054 40.6508 32.9291 40.4218 33.0727C40.1928 33.2164 40.112 33.5172 40.2557 33.7462L41.9259 36.5253C37.3553 38.7702 36.8705 43.6011 36.8705 46.2365V46.8786H58.888V46.2186C58.8835 43.5741 58.4614 38.7253 53.8819 36.5029ZM42.8148 42.3529C42.1369 42.3529 41.5846 41.8007 41.5846 41.1228C41.5846 40.4448 42.1369 39.8926 42.8148 39.8926C43.4928 39.8926 44.045 40.4448 44.045 41.1228C44.0405 41.8052 43.4928 42.3529 42.8148 42.3529ZM52.984 42.3529C52.3061 42.3529 51.7538 41.8007 51.7538 41.1228C51.7538 40.4448 52.3061 39.8926 52.984 39.8926C53.6619 39.8926 54.2142 40.4448 54.2142 41.1228C54.2142 41.8052 53.6619 42.3529 52.984 42.3529ZM63.6022 47.2647C61.8646 47.2647 60.4549 48.6745 60.4549 50.412V61.2726C60.4549 63.0101 61.8646 64.4198 63.6022 64.4198C65.3397 64.4198 66.7494 63.0101 66.7494 61.2726V50.412C66.7449 48.6745 65.3397 47.2647 63.6022 47.2647Z" fill="#EDEDED"/>
<path d="M87.5859 47H85.2109L85.2266 45.7734H87.5859C88.3984 45.7734 89.0755 45.6042 89.6172 45.2656C90.1589 44.9219 90.5651 44.4427 90.8359 43.8281C91.112 43.2083 91.25 42.4844 91.25 41.6562V40.9609C91.25 40.3099 91.1719 39.7318 91.0156 39.2266C90.8594 38.7161 90.6302 38.2865 90.3281 37.9375C90.026 37.5833 89.6562 37.3151 89.2188 37.1328C88.7865 36.9505 88.2891 36.8594 87.7266 36.8594H85.1641V35.625H87.7266C88.4714 35.625 89.151 35.75 89.7656 36C90.3802 36.2448 90.9089 36.6016 91.3516 37.0703C91.7995 37.5339 92.1432 38.0964 92.3828 38.7578C92.6224 39.4141 92.7422 40.1536 92.7422 40.9766V41.6562C92.7422 42.4792 92.6224 43.2214 92.3828 43.8828C92.1432 44.5391 91.7969 45.099 91.3438 45.5625C90.8958 46.026 90.3542 46.3828 89.7188 46.6328C89.0885 46.8776 88.3776 47 87.5859 47ZM86.0156 35.625V47H84.5078V35.625H86.0156ZM94.4062 42.8672V42.6875C94.4062 42.0781 94.4948 41.513 94.6719 40.9922C94.849 40.4661 95.1042 40.0104 95.4375 39.625C95.7708 39.2344 96.1745 38.9323 96.6484 38.7188C97.1224 38.5 97.6536 38.3906 98.2422 38.3906C98.8359 38.3906 99.3698 38.5 99.8438 38.7188C100.323 38.9323 100.729 39.2344 101.062 39.625C101.401 40.0104 101.659 40.4661 101.836 40.9922C102.013 41.513 102.102 42.0781 102.102 42.6875V42.8672C102.102 43.4766 102.013 44.0417 101.836 44.5625C101.659 45.0833 101.401 45.5391 101.062 45.9297C100.729 46.3151 100.326 46.6172 99.8516 46.8359C99.3828 47.0495 98.8516 47.1562 98.2578 47.1562C97.6641 47.1562 97.1302 47.0495 96.6562 46.8359C96.1823 46.6172 95.776 46.3151 95.4375 45.9297C95.1042 45.5391 94.849 45.0833 94.6719 44.5625C94.4948 44.0417 94.4062 43.4766 94.4062 42.8672ZM95.8516 42.6875V42.8672C95.8516 43.2891 95.901 43.6875 96 44.0625C96.099 44.4323 96.2474 44.7604 96.4453 45.0469C96.6484 45.3333 96.901 45.5599 97.2031 45.7266C97.5052 45.888 97.8568 45.9688 98.2578 45.9688C98.6536 45.9688 99 45.888 99.2969 45.7266C99.599 45.5599 99.849 45.3333 100.047 45.0469C100.245 44.7604 100.393 44.4323 100.492 44.0625C100.596 43.6875 100.648 43.2891 100.648 42.8672V42.6875C100.648 42.2708 100.596 41.8776 100.492 41.5078C100.393 41.1328 100.242 40.8021 100.039 40.5156C99.8411 40.224 99.5911 39.9948 99.2891 39.8281C98.9922 39.6615 98.6432 39.5781 98.2422 39.5781C97.8464 39.5781 97.4974 39.6615 97.1953 39.8281C96.8984 39.9948 96.6484 40.224 96.4453 40.5156C96.2474 40.8021 96.099 41.1328 96 41.5078C95.901 41.8776 95.8516 42.2708 95.8516 42.6875ZM106.055 45.5L108.227 38.5469H109.18L108.992 39.9297L106.781 47H105.852L106.055 45.5ZM104.594 38.5469L106.445 45.5781L106.578 47H105.602L103.148 38.5469H104.594ZM111.258 45.5234L113.023 38.5469H114.461L112.008 47H111.039L111.258 45.5234ZM109.391 38.5469L111.516 45.3828L111.758 47H110.836L108.562 39.9141L108.375 38.5469H109.391ZM117.391 40.3516V47H115.945V38.5469H117.312L117.391 40.3516ZM117.047 42.4531L116.445 42.4297C116.451 41.8516 116.536 41.3177 116.703 40.8281C116.87 40.3333 117.104 39.9036 117.406 39.5391C117.708 39.1745 118.068 38.8932 118.484 38.6953C118.906 38.4922 119.372 38.3906 119.883 38.3906C120.299 38.3906 120.674 38.4479 121.008 38.5625C121.341 38.6719 121.625 38.849 121.859 39.0938C122.099 39.3385 122.281 39.6562 122.406 40.0469C122.531 40.4323 122.594 40.9036 122.594 41.4609V47H121.141V41.4453C121.141 41.0026 121.076 40.6484 120.945 40.3828C120.815 40.112 120.625 39.9167 120.375 39.7969C120.125 39.6719 119.818 39.6094 119.453 39.6094C119.094 39.6094 118.766 39.6849 118.469 39.8359C118.177 39.987 117.924 40.1953 117.711 40.4609C117.503 40.7266 117.339 41.0312 117.219 41.375C117.104 41.7135 117.047 42.0729 117.047 42.4531ZM126.359 35V47H124.906V35H126.359ZM128.297 42.8672V42.6875C128.297 42.0781 128.385 41.513 128.562 40.9922C128.74 40.4661 128.995 40.0104 129.328 39.625C129.661 39.2344 130.065 38.9323 130.539 38.7188C131.013 38.5 131.544 38.3906 132.133 38.3906C132.727 38.3906 133.26 38.5 133.734 38.7188C134.214 38.9323 134.62 39.2344 134.953 39.625C135.292 40.0104 135.549 40.4661 135.727 40.9922C135.904 41.513 135.992 42.0781 135.992 42.6875V42.8672C135.992 43.4766 135.904 44.0417 135.727 44.5625C135.549 45.0833 135.292 45.5391 134.953 45.9297C134.62 46.3151 134.216 46.6172 133.742 46.8359C133.273 47.0495 132.742 47.1562 132.148 47.1562C131.555 47.1562 131.021 47.0495 130.547 46.8359C130.073 46.6172 129.667 46.3151 129.328 45.9297C128.995 45.5391 128.74 45.0833 128.562 44.5625C128.385 44.0417 128.297 43.4766 128.297 42.8672ZM129.742 42.6875V42.8672C129.742 43.2891 129.792 43.6875 129.891 44.0625C129.99 44.4323 130.138 44.7604 130.336 45.0469C130.539 45.3333 130.792 45.5599 131.094 45.7266C131.396 45.888 131.747 45.9688 132.148 45.9688C132.544 45.9688 132.891 45.888 133.188 45.7266C133.49 45.5599 133.74 45.3333 133.938 45.0469C134.135 44.7604 134.284 44.4323 134.383 44.0625C134.487 43.6875 134.539 43.2891 134.539 42.8672V42.6875C134.539 42.2708 134.487 41.8776 134.383 41.5078C134.284 41.1328 134.133 40.8021 133.93 40.5156C133.732 40.224 133.482 39.9948 133.18 39.8281C132.883 39.6615 132.534 39.5781 132.133 39.5781C131.737 39.5781 131.388 39.6615 131.086 39.8281C130.789 39.9948 130.539 40.224 130.336 40.5156C130.138 40.8021 129.99 41.1328 129.891 41.5078C129.792 41.8776 129.742 42.2708 129.742 42.6875ZM142.789 45.5547V41.2031C142.789 40.8698 142.721 40.5807 142.586 40.3359C142.456 40.0859 142.258 39.8932 141.992 39.7578C141.727 39.6224 141.398 39.5547 141.008 39.5547C140.643 39.5547 140.323 39.6172 140.047 39.7422C139.776 39.8672 139.562 40.0312 139.406 40.2344C139.255 40.4375 139.18 40.6562 139.18 40.8906H137.734C137.734 40.5885 137.812 40.2891 137.969 39.9922C138.125 39.6953 138.349 39.4271 138.641 39.1875C138.938 38.9427 139.292 38.75 139.703 38.6094C140.12 38.4635 140.583 38.3906 141.094 38.3906C141.708 38.3906 142.25 38.4948 142.719 38.7031C143.193 38.9115 143.562 39.2266 143.828 39.6484C144.099 40.0651 144.234 40.5885 144.234 41.2188V45.1562C144.234 45.4375 144.258 45.737 144.305 46.0547C144.357 46.3724 144.432 46.6458 144.531 46.875V47H143.023C142.951 46.8333 142.893 46.612 142.852 46.3359C142.81 46.0547 142.789 45.7943 142.789 45.5547ZM143.039 41.875L143.055 42.8906H141.594C141.182 42.8906 140.815 42.9245 140.492 42.9922C140.169 43.0547 139.898 43.151 139.68 43.2812C139.461 43.4115 139.294 43.5755 139.18 43.7734C139.065 43.9661 139.008 44.1927 139.008 44.4531C139.008 44.7188 139.068 44.9609 139.188 45.1797C139.307 45.3984 139.487 45.5729 139.727 45.7031C139.971 45.8281 140.271 45.8906 140.625 45.8906C141.068 45.8906 141.458 45.7969 141.797 45.6094C142.135 45.4219 142.404 45.1927 142.602 44.9219C142.805 44.651 142.914 44.388 142.93 44.1328L143.547 44.8281C143.51 45.0469 143.411 45.2891 143.25 45.5547C143.089 45.8203 142.872 46.0755 142.602 46.3203C142.336 46.5599 142.018 46.7604 141.648 46.9219C141.284 47.0781 140.872 47.1562 140.414 47.1562C139.841 47.1562 139.339 47.0443 138.906 46.8203C138.479 46.5964 138.146 46.2969 137.906 45.9219C137.672 45.5417 137.555 45.1172 137.555 44.6484C137.555 44.1953 137.643 43.7969 137.82 43.4531C137.997 43.1042 138.253 42.8151 138.586 42.5859C138.919 42.3516 139.32 42.1745 139.789 42.0547C140.258 41.9349 140.781 41.875 141.359 41.875H143.039ZM151.836 45.3594V35H153.289V47H151.961L151.836 45.3594ZM146.148 42.8672V42.7031C146.148 42.0573 146.227 41.4714 146.383 40.9453C146.544 40.4141 146.771 39.9583 147.062 39.5781C147.359 39.1979 147.711 38.9062 148.117 38.7031C148.529 38.4948 148.987 38.3906 149.492 38.3906C150.023 38.3906 150.487 38.4844 150.883 38.6719C151.284 38.8542 151.622 39.1224 151.898 39.4766C152.18 39.8255 152.401 40.2474 152.562 40.7422C152.724 41.237 152.836 41.7969 152.898 42.4219V43.1406C152.841 43.7604 152.729 44.3177 152.562 44.8125C152.401 45.3073 152.18 45.7292 151.898 46.0781C151.622 46.4271 151.284 46.6953 150.883 46.8828C150.482 47.0651 150.013 47.1562 149.477 47.1562C148.982 47.1562 148.529 47.0495 148.117 46.8359C147.711 46.6224 147.359 46.3229 147.062 45.9375C146.771 45.5521 146.544 45.099 146.383 44.5781C146.227 44.0521 146.148 43.4818 146.148 42.8672ZM147.602 42.7031V42.8672C147.602 43.2891 147.643 43.6849 147.727 44.0547C147.815 44.4245 147.951 44.75 148.133 45.0312C148.315 45.3125 148.547 45.5339 148.828 45.6953C149.109 45.8516 149.445 45.9297 149.836 45.9297C150.315 45.9297 150.708 45.8281 151.016 45.625C151.328 45.4219 151.578 45.1536 151.766 44.8203C151.953 44.487 152.099 44.125 152.203 43.7344V41.8516C152.141 41.5651 152.049 41.2891 151.93 41.0234C151.815 40.7526 151.664 40.513 151.477 40.3047C151.294 40.0911 151.068 39.9219 150.797 39.7969C150.531 39.6719 150.216 39.6094 149.852 39.6094C149.456 39.6094 149.115 39.6927 148.828 39.8594C148.547 40.0208 148.315 40.2448 148.133 40.5312C147.951 40.8125 147.815 41.1406 147.727 41.5156C147.643 41.8854 147.602 42.2812 147.602 42.7031ZM164.539 35.625L159.797 47.9766H158.555L163.305 35.625H164.539ZM173.789 41.5391H172.438V40.5781H173.734C174.307 40.5781 174.771 40.4974 175.125 40.3359C175.479 40.1745 175.737 39.9505 175.898 39.6641C176.06 39.3776 176.141 39.0469 176.141 38.6719C176.141 38.3125 176.052 37.9844 175.875 37.6875C175.698 37.3854 175.424 37.1458 175.055 36.9688C174.685 36.7865 174.208 36.6953 173.625 36.6953C173.188 36.6953 172.792 36.7786 172.438 36.9453C172.083 37.1068 171.802 37.3333 171.594 37.625C171.385 37.9115 171.281 38.2422 171.281 38.6172H169.773C169.773 38.1328 169.875 37.6979 170.078 37.3125C170.281 36.9219 170.56 36.5911 170.914 36.3203C171.268 36.0443 171.677 35.8333 172.141 35.6875C172.609 35.5417 173.104 35.4688 173.625 35.4688C174.234 35.4688 174.786 35.5391 175.281 35.6797C175.776 35.8151 176.201 36.0182 176.555 36.2891C176.909 36.5599 177.18 36.8958 177.367 37.2969C177.555 37.6979 177.648 38.1641 177.648 38.6953C177.648 39.0859 177.557 39.4531 177.375 39.7969C177.193 40.1406 176.932 40.4427 176.594 40.7031C176.255 40.9635 175.849 41.1693 175.375 41.3203C174.901 41.4661 174.372 41.5391 173.789 41.5391ZM172.438 40.875H173.789C174.43 40.875 175 40.9401 175.5 41.0703C176 41.2005 176.422 41.3906 176.766 41.6406C177.109 41.8906 177.37 42.2005 177.547 42.5703C177.729 42.9349 177.82 43.3542 177.82 43.8281C177.82 44.3594 177.716 44.8307 177.508 45.2422C177.305 45.6536 177.016 46.0026 176.641 46.2891C176.266 46.5755 175.82 46.7917 175.305 46.9375C174.794 47.0833 174.234 47.1562 173.625 47.1562C173.135 47.1562 172.651 47.0938 172.172 46.9688C171.698 46.8385 171.268 46.6406 170.883 46.375C170.497 46.1042 170.188 45.7604 169.953 45.3438C169.724 44.9271 169.609 44.4271 169.609 43.8438H171.117C171.117 44.224 171.221 44.5729 171.43 44.8906C171.643 45.2083 171.938 45.4635 172.312 45.6562C172.688 45.8438 173.125 45.9375 173.625 45.9375C174.198 45.9375 174.682 45.849 175.078 45.6719C175.479 45.4896 175.784 45.2422 175.992 44.9297C176.206 44.612 176.312 44.2552 176.312 43.8594C176.312 43.5104 176.255 43.2083 176.141 42.9531C176.031 42.6927 175.867 42.4792 175.648 42.3125C175.435 42.1458 175.167 42.0234 174.844 41.9453C174.526 41.862 174.156 41.8203 173.734 41.8203H172.438V40.875ZM184.57 45.5547V41.2031C184.57 40.8698 184.503 40.5807 184.367 40.3359C184.237 40.0859 184.039 39.8932 183.773 39.7578C183.508 39.6224 183.18 39.5547 182.789 39.5547C182.424 39.5547 182.104 39.6172 181.828 39.7422C181.557 39.8672 181.344 40.0312 181.188 40.2344C181.036 40.4375 180.961 40.6562 180.961 40.8906H179.516C179.516 40.5885 179.594 40.2891 179.75 39.9922C179.906 39.6953 180.13 39.4271 180.422 39.1875C180.719 38.9427 181.073 38.75 181.484 38.6094C181.901 38.4635 182.365 38.3906 182.875 38.3906C183.49 38.3906 184.031 38.4948 184.5 38.7031C184.974 38.9115 185.344 39.2266 185.609 39.6484C185.88 40.0651 186.016 40.5885 186.016 41.2188V45.1562C186.016 45.4375 186.039 45.737 186.086 46.0547C186.138 46.3724 186.214 46.6458 186.312 46.875V47H184.805C184.732 46.8333 184.674 46.612 184.633 46.3359C184.591 46.0547 184.57 45.7943 184.57 45.5547ZM184.82 41.875L184.836 42.8906H183.375C182.964 42.8906 182.596 42.9245 182.273 42.9922C181.951 43.0547 181.68 43.151 181.461 43.2812C181.242 43.4115 181.076 43.5755 180.961 43.7734C180.846 43.9661 180.789 44.1927 180.789 44.4531C180.789 44.7188 180.849 44.9609 180.969 45.1797C181.089 45.3984 181.268 45.5729 181.508 45.7031C181.753 45.8281 182.052 45.8906 182.406 45.8906C182.849 45.8906 183.24 45.7969 183.578 45.6094C183.917 45.4219 184.185 45.1927 184.383 44.9219C184.586 44.651 184.695 44.388 184.711 44.1328L185.328 44.8281C185.292 45.0469 185.193 45.2891 185.031 45.5547C184.87 45.8203 184.654 46.0755 184.383 46.3203C184.117 46.5599 183.799 46.7604 183.43 46.9219C183.065 47.0781 182.654 47.1562 182.195 47.1562C181.622 47.1562 181.12 47.0443 180.688 46.8203C180.26 46.5964 179.927 46.2969 179.688 45.9219C179.453 45.5417 179.336 45.1172 179.336 44.6484C179.336 44.1953 179.424 43.7969 179.602 43.4531C179.779 43.1042 180.034 42.8151 180.367 42.5859C180.701 42.3516 181.102 42.1745 181.57 42.0547C182.039 41.9349 182.562 41.875 183.141 41.875H184.82ZM192.258 43.2812H189.484L189.469 42.125H191.734C192.182 42.125 192.555 42.0807 192.852 41.9922C193.154 41.9036 193.38 41.7708 193.531 41.5938C193.682 41.4167 193.758 41.1979 193.758 40.9375C193.758 40.7344 193.714 40.5573 193.625 40.4062C193.542 40.25 193.414 40.1224 193.242 40.0234C193.07 39.9193 192.857 39.8438 192.602 39.7969C192.352 39.7448 192.057 39.7188 191.719 39.7188H189.867V47H188.422V38.5469H191.719C192.255 38.5469 192.737 38.5938 193.164 38.6875C193.596 38.7812 193.964 38.9245 194.266 39.1172C194.573 39.3047 194.807 39.5443 194.969 39.8359C195.13 40.1276 195.211 40.4714 195.211 40.8672C195.211 41.1224 195.159 41.3646 195.055 41.5938C194.951 41.8229 194.797 42.026 194.594 42.2031C194.391 42.3802 194.141 42.526 193.844 42.6406C193.547 42.75 193.206 42.8203 192.82 42.8516L192.258 43.2812ZM192.258 47H188.961L189.68 45.8281H192.258C192.659 45.8281 192.992 45.7786 193.258 45.6797C193.523 45.5755 193.721 45.4297 193.852 45.2422C193.987 45.0495 194.055 44.8203 194.055 44.5547C194.055 44.2891 193.987 44.0625 193.852 43.875C193.721 43.6823 193.523 43.5365 193.258 43.4375C192.992 43.3333 192.659 43.2812 192.258 43.2812H190.062L190.078 42.125H192.82L193.344 42.5625C193.807 42.599 194.201 42.7135 194.523 42.9062C194.846 43.099 195.091 43.3438 195.258 43.6406C195.424 43.9323 195.508 44.25 195.508 44.5938C195.508 44.9896 195.432 45.3385 195.281 45.6406C195.135 45.9427 194.922 46.1953 194.641 46.3984C194.359 46.5964 194.018 46.7474 193.617 46.8516C193.216 46.9505 192.763 47 192.258 47ZM202.43 45.5547V41.2031C202.43 40.8698 202.362 40.5807 202.227 40.3359C202.096 40.0859 201.898 39.8932 201.633 39.7578C201.367 39.6224 201.039 39.5547 200.648 39.5547C200.284 39.5547 199.964 39.6172 199.688 39.7422C199.417 39.8672 199.203 40.0312 199.047 40.2344C198.896 40.4375 198.82 40.6562 198.82 40.8906H197.375C197.375 40.5885 197.453 40.2891 197.609 39.9922C197.766 39.6953 197.99 39.4271 198.281 39.1875C198.578 38.9427 198.932 38.75 199.344 38.6094C199.76 38.4635 200.224 38.3906 200.734 38.3906C201.349 38.3906 201.891 38.4948 202.359 38.7031C202.833 38.9115 203.203 39.2266 203.469 39.6484C203.74 40.0651 203.875 40.5885 203.875 41.2188V45.1562C203.875 45.4375 203.898 45.737 203.945 46.0547C203.997 46.3724 204.073 46.6458 204.172 46.875V47H202.664C202.591 46.8333 202.534 46.612 202.492 46.3359C202.451 46.0547 202.43 45.7943 202.43 45.5547ZM202.68 41.875L202.695 42.8906H201.234C200.823 42.8906 200.456 42.9245 200.133 42.9922C199.81 43.0547 199.539 43.151 199.32 43.2812C199.102 43.4115 198.935 43.5755 198.82 43.7734C198.706 43.9661 198.648 44.1927 198.648 44.4531C198.648 44.7188 198.708 44.9609 198.828 45.1797C198.948 45.3984 199.128 45.5729 199.367 45.7031C199.612 45.8281 199.911 45.8906 200.266 45.8906C200.708 45.8906 201.099 45.7969 201.438 45.6094C201.776 45.4219 202.044 45.1927 202.242 44.9219C202.445 44.651 202.555 44.388 202.57 44.1328L203.188 44.8281C203.151 45.0469 203.052 45.2891 202.891 45.5547C202.729 45.8203 202.513 46.0755 202.242 46.3203C201.977 46.5599 201.659 46.7604 201.289 46.9219C200.924 47.0781 200.513 47.1562 200.055 47.1562C199.482 47.1562 198.979 47.0443 198.547 46.8203C198.12 46.5964 197.786 46.2969 197.547 45.9219C197.312 45.5417 197.195 45.1172 197.195 44.6484C197.195 44.1953 197.284 43.7969 197.461 43.4531C197.638 43.1042 197.893 42.8151 198.227 42.5859C198.56 42.3516 198.961 42.1745 199.43 42.0547C199.898 41.9349 200.422 41.875 201 41.875H202.68ZM211.883 42.2109V43.3828H207.414V42.2109H211.883ZM207.719 38.5469V47H206.273V38.5469H207.719ZM213.055 38.5469V47H211.602V38.5469H213.055ZM218.828 38.5469V47H217.375V38.5469H218.828ZM221.664 38.5469V39.7188H214.594V38.5469H221.664ZM227.945 45.5547V41.2031C227.945 40.8698 227.878 40.5807 227.742 40.3359C227.612 40.0859 227.414 39.8932 227.148 39.7578C226.883 39.6224 226.555 39.5547 226.164 39.5547C225.799 39.5547 225.479 39.6172 225.203 39.7422C224.932 39.8672 224.719 40.0312 224.562 40.2344C224.411 40.4375 224.336 40.6562 224.336 40.8906H222.891C222.891 40.5885 222.969 40.2891 223.125 39.9922C223.281 39.6953 223.505 39.4271 223.797 39.1875C224.094 38.9427 224.448 38.75 224.859 38.6094C225.276 38.4635 225.74 38.3906 226.25 38.3906C226.865 38.3906 227.406 38.4948 227.875 38.7031C228.349 38.9115 228.719 39.2266 228.984 39.6484C229.255 40.0651 229.391 40.5885 229.391 41.2188V45.1562C229.391 45.4375 229.414 45.737 229.461 46.0547C229.513 46.3724 229.589 46.6458 229.688 46.875V47H228.18C228.107 46.8333 228.049 46.612 228.008 46.3359C227.966 46.0547 227.945 45.7943 227.945 45.5547ZM228.195 41.875L228.211 42.8906H226.75C226.339 42.8906 225.971 42.9245 225.648 42.9922C225.326 43.0547 225.055 43.151 224.836 43.2812C224.617 43.4115 224.451 43.5755 224.336 43.7734C224.221 43.9661 224.164 44.1927 224.164 44.4531C224.164 44.7188 224.224 44.9609 224.344 45.1797C224.464 45.3984 224.643 45.5729 224.883 45.7031C225.128 45.8281 225.427 45.8906 225.781 45.8906C226.224 45.8906 226.615 45.7969 226.953 45.6094C227.292 45.4219 227.56 45.1927 227.758 44.9219C227.961 44.651 228.07 44.388 228.086 44.1328L228.703 44.8281C228.667 45.0469 228.568 45.2891 228.406 45.5547C228.245 45.8203 228.029 46.0755 227.758 46.3203C227.492 46.5599 227.174 46.7604 226.805 46.9219C226.44 47.0781 226.029 47.1562 225.57 47.1562C224.997 47.1562 224.495 47.0443 224.062 46.8203C223.635 46.5964 223.302 46.2969 223.062 45.9219C222.828 45.5417 222.711 45.1172 222.711 44.6484C222.711 44.1953 222.799 43.7969 222.977 43.4531C223.154 43.1042 223.409 42.8151 223.742 42.5859C224.076 42.3516 224.477 42.1745 224.945 42.0547C225.414 41.9349 225.938 41.875 226.516 41.875H228.195ZM234.227 43.3203L231.023 38.5469H232.766L234.953 42.0469H236.641L236.43 43.3203H234.227ZM235.016 43.1719L232.562 47H230.734L234.102 42.125L235.016 43.1719ZM237.383 38.5469V47H235.938V38.5469H237.383ZM242.312 38.5469L239.109 43.3203H236.906L236.68 42.0469H238.375L240.562 38.5469H242.312ZM240.766 47L238.305 43.1719L239.234 42.125L242.594 47H240.766ZM245.492 44.7109L249.391 38.5469H250.844V47H249.391V40.8359L245.492 47H244.055V38.5469H245.492V44.7109ZM256.609 38.5469V47H255.156V38.5469H256.609ZM259.445 38.5469V39.7188H252.375V38.5469H259.445ZM262.43 44.7109L266.328 38.5469H267.781V47H266.328V40.8359L262.43 47H260.992V38.5469H262.43V44.7109Z" fill="#EAEAEA"/>
<path d="M88.5312 62.6328L84.7656 73H83.2266L87.5625 61.625H88.5547L88.5312 62.6328ZM91.6875 73L87.9141 62.6328L87.8906 61.625H88.8828L93.2344 73H91.6875ZM91.4922 68.7891V70.0234H85.1016V68.7891H91.4922ZM95.9844 66.3516V73H94.5391V64.5469H95.9062L95.9844 66.3516ZM95.6406 68.4531L95.0391 68.4297C95.0443 67.8516 95.1302 67.3177 95.2969 66.8281C95.4635 66.3333 95.6979 65.9036 96 65.5391C96.3021 65.1745 96.6615 64.8932 97.0781 64.6953C97.5 64.4922 97.9661 64.3906 98.4766 64.3906C98.8932 64.3906 99.2682 64.4479 99.6016 64.5625C99.9349 64.6719 100.219 64.849 100.453 65.0938C100.693 65.3385 100.875 65.6562 101 66.0469C101.125 66.4323 101.188 66.9036 101.188 67.4609V73H99.7344V67.4453C99.7344 67.0026 99.6693 66.6484 99.5391 66.3828C99.4089 66.112 99.2188 65.9167 98.9688 65.7969C98.7188 65.6719 98.4115 65.6094 98.0469 65.6094C97.6875 65.6094 97.3594 65.6849 97.0625 65.8359C96.7708 65.987 96.5182 66.1953 96.3047 66.4609C96.0964 66.7266 95.9323 67.0312 95.8125 67.375C95.6979 67.7135 95.6406 68.0729 95.6406 68.4531ZM108.711 71.3594V61H110.164V73H108.836L108.711 71.3594ZM103.023 68.8672V68.7031C103.023 68.0573 103.102 67.4714 103.258 66.9453C103.419 66.4141 103.646 65.9583 103.938 65.5781C104.234 65.1979 104.586 64.9062 104.992 64.7031C105.404 64.4948 105.862 64.3906 106.367 64.3906C106.898 64.3906 107.362 64.4844 107.758 64.6719C108.159 64.8542 108.497 65.1224 108.773 65.4766C109.055 65.8255 109.276 66.2474 109.438 66.7422C109.599 67.237 109.711 67.7969 109.773 68.4219V69.1406C109.716 69.7604 109.604 70.3177 109.438 70.8125C109.276 71.3073 109.055 71.7292 108.773 72.0781C108.497 72.4271 108.159 72.6953 107.758 72.8828C107.357 73.0651 106.888 73.1562 106.352 73.1562C105.857 73.1562 105.404 73.0495 104.992 72.8359C104.586 72.6224 104.234 72.3229 103.938 71.9375C103.646 71.5521 103.419 71.099 103.258 70.5781C103.102 70.0521 103.023 69.4818 103.023 68.8672ZM104.477 68.7031V68.8672C104.477 69.2891 104.518 69.6849 104.602 70.0547C104.69 70.4245 104.826 70.75 105.008 71.0312C105.19 71.3125 105.422 71.5339 105.703 71.6953C105.984 71.8516 106.32 71.9297 106.711 71.9297C107.19 71.9297 107.583 71.8281 107.891 71.625C108.203 71.4219 108.453 71.1536 108.641 70.8203C108.828 70.487 108.974 70.125 109.078 69.7344V67.8516C109.016 67.5651 108.924 67.2891 108.805 67.0234C108.69 66.7526 108.539 66.513 108.352 66.3047C108.169 66.0911 107.943 65.9219 107.672 65.7969C107.406 65.6719 107.091 65.6094 106.727 65.6094C106.331 65.6094 105.99 65.6927 105.703 65.8594C105.422 66.0208 105.19 66.2448 105.008 66.5312C104.826 66.8125 104.69 67.1406 104.602 67.5156C104.518 67.8854 104.477 68.2812 104.477 68.7031ZM113.859 65.875V73H112.414V64.5469H113.82L113.859 65.875ZM116.5 64.5L116.492 65.8438C116.372 65.8177 116.258 65.8021 116.148 65.7969C116.044 65.7865 115.924 65.7812 115.789 65.7812C115.456 65.7812 115.161 65.8333 114.906 65.9375C114.651 66.0417 114.435 66.1875 114.258 66.375C114.081 66.5625 113.94 66.7865 113.836 67.0469C113.737 67.3021 113.672 67.5833 113.641 67.8906L113.234 68.125C113.234 67.6146 113.284 67.1354 113.383 66.6875C113.487 66.2396 113.646 65.8438 113.859 65.5C114.073 65.151 114.344 64.8802 114.672 64.6875C115.005 64.4896 115.401 64.3906 115.859 64.3906C115.964 64.3906 116.083 64.4036 116.219 64.4297C116.354 64.4505 116.448 64.474 116.5 64.5ZM117.297 68.8672V68.6875C117.297 68.0781 117.385 67.513 117.562 66.9922C117.74 66.4661 117.995 66.0104 118.328 65.625C118.661 65.2344 119.065 64.9323 119.539 64.7188C120.013 64.5 120.544 64.3906 121.133 64.3906C121.727 64.3906 122.26 64.5 122.734 64.7188C123.214 64.9323 123.62 65.2344 123.953 65.625C124.292 66.0104 124.549 66.4661 124.727 66.9922C124.904 67.513 124.992 68.0781 124.992 68.6875V68.8672C124.992 69.4766 124.904 70.0417 124.727 70.5625C124.549 71.0833 124.292 71.5391 123.953 71.9297C123.62 72.3151 123.216 72.6172 122.742 72.8359C122.273 73.0495 121.742 73.1562 121.148 73.1562C120.555 73.1562 120.021 73.0495 119.547 72.8359C119.073 72.6172 118.667 72.3151 118.328 71.9297C117.995 71.5391 117.74 71.0833 117.562 70.5625C117.385 70.0417 117.297 69.4766 117.297 68.8672ZM118.742 68.6875V68.8672C118.742 69.2891 118.792 69.6875 118.891 70.0625C118.99 70.4323 119.138 70.7604 119.336 71.0469C119.539 71.3333 119.792 71.5599 120.094 71.7266C120.396 71.888 120.747 71.9688 121.148 71.9688C121.544 71.9688 121.891 71.888 122.188 71.7266C122.49 71.5599 122.74 71.3333 122.938 71.0469C123.135 70.7604 123.284 70.4323 123.383 70.0625C123.487 69.6875 123.539 69.2891 123.539 68.8672V68.6875C123.539 68.2708 123.487 67.8776 123.383 67.5078C123.284 67.1328 123.133 66.8021 122.93 66.5156C122.732 66.224 122.482 65.9948 122.18 65.8281C121.883 65.6615 121.534 65.5781 121.133 65.5781C120.737 65.5781 120.388 65.6615 120.086 65.8281C119.789 65.9948 119.539 66.224 119.336 66.5156C119.138 66.8021 118.99 67.1328 118.891 67.5078C118.792 67.8776 118.742 68.2708 118.742 68.6875ZM128.375 64.5469V73H126.922V64.5469H128.375ZM126.812 62.3047C126.812 62.0703 126.883 61.8724 127.023 61.7109C127.169 61.5495 127.383 61.4688 127.664 61.4688C127.94 61.4688 128.151 61.5495 128.297 61.7109C128.448 61.8724 128.523 62.0703 128.523 62.3047C128.523 62.5286 128.448 62.7214 128.297 62.8828C128.151 63.0391 127.94 63.1172 127.664 63.1172C127.383 63.1172 127.169 63.0391 127.023 62.8828C126.883 62.7214 126.812 62.5286 126.812 62.3047ZM136.023 71.3594V61H137.477V73H136.148L136.023 71.3594ZM130.336 68.8672V68.7031C130.336 68.0573 130.414 67.4714 130.57 66.9453C130.732 66.4141 130.958 65.9583 131.25 65.5781C131.547 65.1979 131.898 64.9062 132.305 64.7031C132.716 64.4948 133.174 64.3906 133.68 64.3906C134.211 64.3906 134.674 64.4844 135.07 64.6719C135.471 64.8542 135.81 65.1224 136.086 65.4766C136.367 65.8255 136.589 66.2474 136.75 66.7422C136.911 67.237 137.023 67.7969 137.086 68.4219V69.1406C137.029 69.7604 136.917 70.3177 136.75 70.8125C136.589 71.3073 136.367 71.7292 136.086 72.0781C135.81 72.4271 135.471 72.6953 135.07 72.8828C134.669 73.0651 134.201 73.1562 133.664 73.1562C133.169 73.1562 132.716 73.0495 132.305 72.8359C131.898 72.6224 131.547 72.3229 131.25 71.9375C130.958 71.5521 130.732 71.099 130.57 70.5781C130.414 70.0521 130.336 69.4818 130.336 68.8672ZM131.789 68.7031V68.8672C131.789 69.2891 131.831 69.6849 131.914 70.0547C132.003 70.4245 132.138 70.75 132.32 71.0312C132.503 71.3125 132.734 71.5339 133.016 71.6953C133.297 71.8516 133.633 71.9297 134.023 71.9297C134.503 71.9297 134.896 71.8281 135.203 71.625C135.516 71.4219 135.766 71.1536 135.953 70.8203C136.141 70.487 136.286 70.125 136.391 69.7344V67.8516C136.328 67.5651 136.237 67.2891 136.117 67.0234C136.003 66.7526 135.852 66.513 135.664 66.3047C135.482 66.0911 135.255 65.9219 134.984 65.7969C134.719 65.6719 134.404 65.6094 134.039 65.6094C133.643 65.6094 133.302 65.6927 133.016 65.8594C132.734 66.0208 132.503 66.2448 132.32 66.5312C132.138 66.8125 132.003 67.1406 131.914 67.5156C131.831 67.8854 131.789 68.2812 131.789 68.7031Z" fill="#EAEAEA"/>
<defs>
<filter id="filter0_d_246_163" x="8" y="10" width="287" height="98" filterUnits="userSpaceOnUse" color-interpolation-filters="sRGB">
<feFlood flood-opacity="0" result="BackgroundImageFix"/>
<feColorMatrix in="SourceAlpha" type="matrix" values="0 0 0 0 0 0 0 0 0 0 0 0 0 0 0 0 0 0 127 0" result="hardAlpha"/>
<feOffset dx="2" dy="2"/>
<feGaussianBlur stdDeviation="2"/>
<feComposite in2="hardAlpha" operator="out"/>
<feColorMatrix type="matrix" values="0 0 0 0 0 0 0 0 0 0 0 0 0 0 0 0 0 0 0.25 0"/>
<feBlend mode="normal" in2="BackgroundImageFix" result="effect1_dropShadow_246_163"/>
<feBlend mode="normal" in="SourceGraphic" in2="effect1_dropShadow_246_163" result="shape"/>
</filter>
<linearGradient id="paint0_linear_246_163" x1="149.5" y1="12" x2="149.5" y2="102" gradientUnits="userSpaceOnUse">
<stop stop-color="#B20101"/>
<stop offset="1"/>
</linearGradient>
</defs>
</svg>
