<svg width="970" height="373" viewBox="0 0 970 373" fill="none" xmlns="http://www.w3.org/2000/svg">
<path d="M0 20C0 8.95431 8.95431 0 20 0H950C961.046 0 970 8.95431 970 20V353C970 364.046 961.046 373 950 373H20C8.95431 373 0 364.046 0 353V20Z" fill="url(#paint0_linear_263_42)"/>
<path d="M511.6 288.8L494.5 240.2H503.4C513.9 270.7 515.3 275 516.4 278.8C517.4 275.3 519 270.6 529.9 240.2H538.8L520.9 288.8H511.6Z" fill="#394EFF"/>
<path d="M547.2 288.8V240.3H555.5V288.8H547.2Z" fill="#394EFF"/>
<path d="M652.6 268.4C652.6 275 652 279.2 650.2 282.3C647.4 287.2 641.5 289.9 632.9 289.9C624.8 289.9 618.8 287.5 616 282.1C614.3 279 613.7 274.4 613.7 268.9V240.3H622V268.7C622 272.7 622.3 275.5 623 277.3C624.2 280.4 627.2 282.8 633.3 282.8C638.6 282.8 641.8 281 643.4 277.7C644.2 276 645 272.8 645 268.8V240.3H652.6V268.4V268.4Z" fill="#394EFF"/>
<path d="M663.1 279.5C666.8 281.2 671.6 282.8 677.2 282.8C683.8 282.8 687.2 280.4 687.2 276.1C687.2 272.8 686 271 679.6 268.8L672.8 266.5C665.7 264.1 662.4 259.9 662.4 253C662.4 245.6 668.2 239.1 680.7 239.1C685.6 239.1 690.4 239.9 694.3 241.3L692.5 248.2C688.5 246.9 683.7 246 679.7 246C673 246 671.1 249.5 671.1 252.4C671.1 255.3 672 257.3 677.6 259.1L684.4 261.5C692.7 264.3 695.6 268.7 695.6 275C695.6 282.7 690.3 289.6 677.2 289.6C671.1 289.6 665.2 288.2 661 286.2L663.1 279.5V279.5Z" fill="#394EFF"/>
<path d="M718.5 288.8V247.9H704V240.3H741.4V247.9H726.9V288.8H718.5Z" fill="#394EFF"/>
<path d="M805.2 288.8V247.9H790.7V240.3H828.1V247.9H813.6V288.8H805.2Z" fill="#394EFF"/>
<path d="M765 289.8C750.9 289.8 742 278 742 264C742 248.6 751 239.2 766.2 239.2C780.8 239.2 788.4 250.5 788.5 264C788.6 277.9 779.8 289.8 765 289.8ZM765.6 246.2C756 246.2 750.8 252.2 750.8 264.1C750.8 278.6 757.1 282.8 765.4 282.8C774 282.8 779.8 277.5 779.8 264.5C780 253 776.7 246.2 765.6 246.2V246.2Z" fill="#394EFF"/>
<path d="M826.4 288.8L845.1 240.2H854.7L872.9 288.8H864L859.1 276.1H840.2L835.2 288.9H826.4V288.8ZM856.9 269C852.4 256.5 850.9 252.5 849.9 249.1C848.8 252.4 847.5 256.2 842.5 269H856.9Z" fill="#394EFF"/>
<path d="M880.9 288.8V240.3H889.9V281.5L914.1 281.2L914.2 288.8H880.9Z" fill="#394EFF"/>
<path d="M353 192L401.7 240.6L353 289.1H460.5V192H353ZM450.1 278.7H377.5L415.9 240.6L377.5 202.4H450.1V278.7V278.7Z" fill="#394EFF"/>
<path d="M593.8 267.8C601 265.4 603.8 260.3 603.8 254.1C603.8 247.4 600.3 243.2 595.2 241.6C592.2 240.7 587.9 240.3 583.7 240.3H568.7V288.9H577V269L579.8 268.8C583.5 268.8 585.3 269.2 586.1 269.1L597 288.8H606.2L593.8 267.8V267.8ZM591.6 261.2C589.6 262.3 586.7 262.6 583.2 262.6H577V247.2H583.3C586.6 247.2 589.1 247.3 591 248C593.6 249 595 251.3 595 254.6C594.9 257.6 593.8 260 591.6 261.2Z" fill="#394EFF"/>
<g filter="url(#filter0_d_263_42)">
<path d="M59 187.5C59 119.293 114.293 64 182.5 64V64C250.707 64 306 119.293 306 187.5V187.5C306 255.707 250.707 311 182.5 311V311C114.293 311 59 255.707 59 187.5V187.5Z" fill="#69AC77"/>
</g>
<g filter="url(#filter1_d_263_42)">
<path d="M280 187.5C280 241.348 236.348 285 182.5 285C128.652 285 85 241.348 85 187.5C85 133.652 128.652 90 182.5 90C236.348 90 280 133.652 280 187.5Z" fill="white"/>
</g>
<path d="M183 188.795C178.719 188.795 175.074 187.631 172.062 185.301C169.051 182.953 166.75 179.553 165.159 175.102C163.568 170.633 162.772 165.235 162.772 158.909C162.772 152.621 163.568 147.252 165.159 142.801C166.769 138.331 169.079 134.922 172.091 132.574C175.121 130.206 178.757 129.023 183 129.023C187.242 129.023 190.869 130.206 193.88 132.574C196.911 134.922 199.221 138.331 200.812 142.801C202.422 147.252 203.227 152.621 203.227 158.909C203.227 165.235 202.432 170.633 200.841 175.102C199.25 179.553 196.949 182.953 193.937 185.301C190.926 187.631 187.28 188.795 183 188.795ZM183 182.545C187.242 182.545 190.538 180.5 192.886 176.409C195.235 172.318 196.409 166.485 196.409 158.909C196.409 153.871 195.869 149.581 194.79 146.04C193.729 142.498 192.195 139.799 190.187 137.943C188.199 136.087 185.803 135.159 183 135.159C178.795 135.159 175.509 137.233 173.142 141.381C170.774 145.509 169.591 151.352 169.591 158.909C169.591 163.947 170.121 168.227 171.182 171.75C172.242 175.273 173.767 177.953 175.755 179.79C177.763 181.627 180.178 182.545 183 182.545Z" fill="#6AB579"/>
<path d="M183 188.795C178.719 188.795 175.074 187.631 172.062 185.301C169.051 182.953 166.75 179.553 165.159 175.102C163.568 170.633 162.772 165.235 162.772 158.909C162.772 152.621 163.568 147.252 165.159 142.801C166.769 138.331 169.079 134.922 172.091 132.574C175.121 130.206 178.757 129.023 183 129.023C187.242 129.023 190.869 130.206 193.88 132.574C196.911 134.922 199.221 138.331 200.812 142.801C202.422 147.252 203.227 152.621 203.227 158.909C203.227 165.235 202.432 170.633 200.841 175.102C199.25 179.553 196.949 182.953 193.937 185.301C190.926 187.631 187.28 188.795 183 188.795ZM183 182.545C187.242 182.545 190.538 180.5 192.886 176.409C195.235 172.318 196.409 166.485 196.409 158.909C196.409 153.871 195.869 149.581 194.79 146.04C193.729 142.498 192.195 139.799 190.187 137.943C188.199 136.087 185.803 135.159 183 135.159C178.795 135.159 175.509 137.233 173.142 141.381C170.774 145.509 169.591 151.352 169.591 158.909C169.591 163.947 170.121 168.227 171.182 171.75C172.242 175.273 173.767 177.953 175.755 179.79C177.763 181.627 180.178 182.545 183 182.545Z" fill="#6AB579"/>
<path d="M183 188.795C178.719 188.795 175.074 187.631 172.062 185.301C169.051 182.953 166.75 179.553 165.159 175.102C163.568 170.633 162.772 165.235 162.772 158.909C162.772 152.621 163.568 147.252 165.159 142.801C166.769 138.331 169.079 134.922 172.091 132.574C175.121 130.206 178.757 129.023 183 129.023C187.242 129.023 190.869 130.206 193.88 132.574C196.911 134.922 199.221 138.331 200.812 142.801C202.422 147.252 203.227 152.621 203.227 158.909C203.227 165.235 202.432 170.633 200.841 175.102C199.25 179.553 196.949 182.953 193.937 185.301C190.926 187.631 187.28 188.795 183 188.795ZM183 182.545C187.242 182.545 190.538 180.5 192.886 176.409C195.235 172.318 196.409 166.485 196.409 158.909C196.409 153.871 195.869 149.581 194.79 146.04C193.729 142.498 192.195 139.799 190.187 137.943C188.199 136.087 185.803 135.159 183 135.159C178.795 135.159 175.509 137.233 173.142 141.381C170.774 145.509 169.591 151.352 169.591 158.909C169.591 163.947 170.121 168.227 171.182 171.75C172.242 175.273 173.767 177.953 175.755 179.79C177.763 181.627 180.178 182.545 183 182.545Z" fill="#6AB579"/>
<path d="M183 188.795C178.719 188.795 175.074 187.631 172.062 185.301C169.051 182.953 166.75 179.553 165.159 175.102C163.568 170.633 162.772 165.235 162.772 158.909C162.772 152.621 163.568 147.252 165.159 142.801C166.769 138.331 169.079 134.922 172.091 132.574C175.121 130.206 178.757 129.023 183 129.023C187.242 129.023 190.869 130.206 193.88 132.574C196.911 134.922 199.221 138.331 200.812 142.801C202.422 147.252 203.227 152.621 203.227 158.909C203.227 165.235 202.432 170.633 200.841 175.102C199.25 179.553 196.949 182.953 193.937 185.301C190.926 187.631 187.28 188.795 183 188.795ZM183 182.545C187.242 182.545 190.538 180.5 192.886 176.409C195.235 172.318 196.409 166.485 196.409 158.909C196.409 153.871 195.869 149.581 194.79 146.04C193.729 142.498 192.195 139.799 190.187 137.943C188.199 136.087 185.803 135.159 183 135.159C178.795 135.159 175.509 137.233 173.142 141.381C170.774 145.509 169.591 151.352 169.591 158.909C169.591 163.947 170.121 168.227 171.182 171.75C172.242 175.273 173.767 177.953 175.755 179.79C177.763 181.627 180.178 182.545 183 182.545Z" fill="#6AB579"/>
<path d="M183 188.795C178.719 188.795 175.074 187.631 172.062 185.301C169.051 182.953 166.75 179.553 165.159 175.102C163.568 170.633 162.772 165.235 162.772 158.909C162.772 152.621 163.568 147.252 165.159 142.801C166.769 138.331 169.079 134.922 172.091 132.574C175.121 130.206 178.757 129.023 183 129.023C187.242 129.023 190.869 130.206 193.88 132.574C196.911 134.922 199.221 138.331 200.812 142.801C202.422 147.252 203.227 152.621 203.227 158.909C203.227 165.235 202.432 170.633 200.841 175.102C199.25 179.553 196.949 182.953 193.937 185.301C190.926 187.631 187.28 188.795 183 188.795ZM183 182.545C187.242 182.545 190.538 180.5 192.886 176.409C195.235 172.318 196.409 166.485 196.409 158.909C196.409 153.871 195.869 149.581 194.79 146.04C193.729 142.498 192.195 139.799 190.187 137.943C188.199 136.087 185.803 135.159 183 135.159C178.795 135.159 175.509 137.233 173.142 141.381C170.774 145.509 169.591 151.352 169.591 158.909C169.591 163.947 170.121 168.227 171.182 171.75C172.242 175.273 173.767 177.953 175.755 179.79C177.763 181.627 180.178 182.545 183 182.545Z" fill="#6AB579"/>
<path d="M183 188.795C178.719 188.795 175.074 187.631 172.062 185.301C169.051 182.953 166.75 179.553 165.159 175.102C163.568 170.633 162.772 165.235 162.772 158.909C162.772 152.621 163.568 147.252 165.159 142.801C166.769 138.331 169.079 134.922 172.091 132.574C175.121 130.206 178.757 129.023 183 129.023C187.242 129.023 190.869 130.206 193.88 132.574C196.911 134.922 199.221 138.331 200.812 142.801C202.422 147.252 203.227 152.621 203.227 158.909C203.227 165.235 202.432 170.633 200.841 175.102C199.25 179.553 196.949 182.953 193.937 185.301C190.926 187.631 187.28 188.795 183 188.795ZM183 182.545C187.242 182.545 190.538 180.5 192.886 176.409C195.235 172.318 196.409 166.485 196.409 158.909C196.409 153.871 195.869 149.581 194.79 146.04C193.729 142.498 192.195 139.799 190.187 137.943C188.199 136.087 185.803 135.159 183 135.159C178.795 135.159 175.509 137.233 173.142 141.381C170.774 145.509 169.591 151.352 169.591 158.909C169.591 163.947 170.121 168.227 171.182 171.75C172.242 175.273 173.767 177.953 175.755 179.79C177.763 181.627 180.178 182.545 183 182.545Z" fill="#6AB579"/>
<path d="M164.017 212.591L155.58 243.938H152.818L161.256 212.591H164.017Z" fill="#6AB579"/>
<path d="M164.017 212.591L155.58 243.938H152.818L161.256 212.591H164.017Z" fill="#6AB579"/>
<path d="M164.017 212.591L155.58 243.938H152.818L161.256 212.591H164.017Z" fill="#6AB579"/>
<path d="M164.017 212.591L155.58 243.938H152.818L161.256 212.591H164.017Z" fill="#6AB579"/>
<path d="M164.017 212.591L155.58 243.938H152.818L161.256 212.591H164.017Z" fill="#6AB579"/>
<path d="M164.017 212.591L155.58 243.938H152.818L161.256 212.591H164.017Z" fill="#949494"/>
<path d="M186.361 240.358C185.287 240.341 184.213 240.136 183.139 239.744C182.065 239.352 181.085 238.692 180.199 237.763C179.312 236.825 178.601 235.56 178.064 233.966C177.527 232.364 177.258 230.352 177.258 227.932C177.258 225.614 177.476 223.56 177.91 221.77C178.345 219.972 178.976 218.459 179.802 217.232C180.629 215.996 181.626 215.058 182.794 214.419C183.97 213.78 185.295 213.46 186.77 213.46C188.236 213.46 189.54 213.754 190.682 214.342C191.832 214.922 192.77 215.732 193.494 216.771C194.219 217.811 194.687 219.009 194.9 220.364H191.781C191.491 219.188 190.929 218.212 190.094 217.436C189.258 216.661 188.15 216.273 186.77 216.273C184.741 216.273 183.143 217.155 181.976 218.919C180.817 220.683 180.233 223.159 180.224 226.347H180.429C180.906 225.622 181.473 225.004 182.129 224.493C182.794 223.973 183.527 223.572 184.328 223.291C185.129 223.01 185.977 222.869 186.872 222.869C188.372 222.869 189.744 223.244 190.988 223.994C192.233 224.736 193.23 225.763 193.98 227.075C194.73 228.379 195.105 229.875 195.105 231.563C195.105 233.182 194.743 234.665 194.018 236.011C193.294 237.349 192.275 238.415 190.963 239.207C189.659 239.991 188.125 240.375 186.361 240.358ZM186.361 237.545C187.434 237.545 188.398 237.277 189.25 236.74C190.111 236.203 190.788 235.483 191.282 234.58C191.785 233.676 192.037 232.67 192.037 231.563C192.037 230.48 191.794 229.496 191.308 228.609C190.831 227.714 190.17 227.003 189.327 226.474C188.491 225.946 187.537 225.682 186.463 225.682C185.653 225.682 184.899 225.844 184.2 226.168C183.501 226.483 182.888 226.918 182.359 227.472C181.839 228.026 181.43 228.661 181.132 229.376C180.834 230.084 180.684 230.83 180.684 231.614C180.684 232.653 180.927 233.625 181.413 234.528C181.907 235.432 182.581 236.161 183.433 236.714C184.294 237.268 185.27 237.545 186.361 237.545Z" fill="#6AB579"/>
<path d="M186.361 240.358C185.287 240.341 184.213 240.136 183.139 239.744C182.065 239.352 181.085 238.692 180.199 237.763C179.312 236.825 178.601 235.56 178.064 233.966C177.527 232.364 177.258 230.352 177.258 227.932C177.258 225.614 177.476 223.56 177.91 221.77C178.345 219.972 178.976 218.459 179.802 217.232C180.629 215.996 181.626 215.058 182.794 214.419C183.97 213.78 185.295 213.46 186.77 213.46C188.236 213.46 189.54 213.754 190.682 214.342C191.832 214.922 192.77 215.732 193.494 216.771C194.219 217.811 194.687 219.009 194.9 220.364H191.781C191.491 219.188 190.929 218.212 190.094 217.436C189.258 216.661 188.15 216.273 186.77 216.273C184.741 216.273 183.143 217.155 181.976 218.919C180.817 220.683 180.233 223.159 180.224 226.347H180.429C180.906 225.622 181.473 225.004 182.129 224.493C182.794 223.973 183.527 223.572 184.328 223.291C185.129 223.01 185.977 222.869 186.872 222.869C188.372 222.869 189.744 223.244 190.988 223.994C192.233 224.736 193.23 225.763 193.98 227.075C194.73 228.379 195.105 229.875 195.105 231.563C195.105 233.182 194.743 234.665 194.018 236.011C193.294 237.349 192.275 238.415 190.963 239.207C189.659 239.991 188.125 240.375 186.361 240.358ZM186.361 237.545C187.434 237.545 188.398 237.277 189.25 236.74C190.111 236.203 190.788 235.483 191.282 234.58C191.785 233.676 192.037 232.67 192.037 231.563C192.037 230.48 191.794 229.496 191.308 228.609C190.831 227.714 190.17 227.003 189.327 226.474C188.491 225.946 187.537 225.682 186.463 225.682C185.653 225.682 184.899 225.844 184.2 226.168C183.501 226.483 182.888 226.918 182.359 227.472C181.839 228.026 181.43 228.661 181.132 229.376C180.834 230.084 180.684 230.83 180.684 231.614C180.684 232.653 180.927 233.625 181.413 234.528C181.907 235.432 182.581 236.161 183.433 236.714C184.294 237.268 185.27 237.545 186.361 237.545Z" fill="#6AB579"/>
<path d="M186.361 240.358C185.287 240.341 184.213 240.136 183.139 239.744C182.065 239.352 181.085 238.692 180.199 237.763C179.312 236.825 178.601 235.56 178.064 233.966C177.527 232.364 177.258 230.352 177.258 227.932C177.258 225.614 177.476 223.56 177.91 221.77C178.345 219.972 178.976 218.459 179.802 217.232C180.629 215.996 181.626 215.058 182.794 214.419C183.97 213.78 185.295 213.46 186.77 213.46C188.236 213.46 189.54 213.754 190.682 214.342C191.832 214.922 192.77 215.732 193.494 216.771C194.219 217.811 194.687 219.009 194.9 220.364H191.781C191.491 219.188 190.929 218.212 190.094 217.436C189.258 216.661 188.15 216.273 186.77 216.273C184.741 216.273 183.143 217.155 181.976 218.919C180.817 220.683 180.233 223.159 180.224 226.347H180.429C180.906 225.622 181.473 225.004 182.129 224.493C182.794 223.973 183.527 223.572 184.328 223.291C185.129 223.01 185.977 222.869 186.872 222.869C188.372 222.869 189.744 223.244 190.988 223.994C192.233 224.736 193.23 225.763 193.98 227.075C194.73 228.379 195.105 229.875 195.105 231.563C195.105 233.182 194.743 234.665 194.018 236.011C193.294 237.349 192.275 238.415 190.963 239.207C189.659 239.991 188.125 240.375 186.361 240.358ZM186.361 237.545C187.434 237.545 188.398 237.277 189.25 236.74C190.111 236.203 190.788 235.483 191.282 234.58C191.785 233.676 192.037 232.67 192.037 231.563C192.037 230.48 191.794 229.496 191.308 228.609C190.831 227.714 190.17 227.003 189.327 226.474C188.491 225.946 187.537 225.682 186.463 225.682C185.653 225.682 184.899 225.844 184.2 226.168C183.501 226.483 182.888 226.918 182.359 227.472C181.839 228.026 181.43 228.661 181.132 229.376C180.834 230.084 180.684 230.83 180.684 231.614C180.684 232.653 180.927 233.625 181.413 234.528C181.907 235.432 182.581 236.161 183.433 236.714C184.294 237.268 185.27 237.545 186.361 237.545Z" fill="#6AB579"/>
<path d="M186.361 240.358C185.287 240.341 184.213 240.136 183.139 239.744C182.065 239.352 181.085 238.692 180.199 237.763C179.312 236.825 178.601 235.56 178.064 233.966C177.527 232.364 177.258 230.352 177.258 227.932C177.258 225.614 177.476 223.56 177.91 221.77C178.345 219.972 178.976 218.459 179.802 217.232C180.629 215.996 181.626 215.058 182.794 214.419C183.97 213.78 185.295 213.46 186.77 213.46C188.236 213.46 189.54 213.754 190.682 214.342C191.832 214.922 192.77 215.732 193.494 216.771C194.219 217.811 194.687 219.009 194.9 220.364H191.781C191.491 219.188 190.929 218.212 190.094 217.436C189.258 216.661 188.15 216.273 186.77 216.273C184.741 216.273 183.143 217.155 181.976 218.919C180.817 220.683 180.233 223.159 180.224 226.347H180.429C180.906 225.622 181.473 225.004 182.129 224.493C182.794 223.973 183.527 223.572 184.328 223.291C185.129 223.01 185.977 222.869 186.872 222.869C188.372 222.869 189.744 223.244 190.988 223.994C192.233 224.736 193.23 225.763 193.98 227.075C194.73 228.379 195.105 229.875 195.105 231.563C195.105 233.182 194.743 234.665 194.018 236.011C193.294 237.349 192.275 238.415 190.963 239.207C189.659 239.991 188.125 240.375 186.361 240.358ZM186.361 237.545C187.434 237.545 188.398 237.277 189.25 236.74C190.111 236.203 190.788 235.483 191.282 234.58C191.785 233.676 192.037 232.67 192.037 231.563C192.037 230.48 191.794 229.496 191.308 228.609C190.831 227.714 190.17 227.003 189.327 226.474C188.491 225.946 187.537 225.682 186.463 225.682C185.653 225.682 184.899 225.844 184.2 226.168C183.501 226.483 182.888 226.918 182.359 227.472C181.839 228.026 181.43 228.661 181.132 229.376C180.834 230.084 180.684 230.83 180.684 231.614C180.684 232.653 180.927 233.625 181.413 234.528C181.907 235.432 182.581 236.161 183.433 236.714C184.294 237.268 185.27 237.545 186.361 237.545Z" fill="#6AB579"/>
<path d="M186.361 240.358C185.287 240.341 184.213 240.136 183.139 239.744C182.065 239.352 181.085 238.692 180.199 237.763C179.312 236.825 178.601 235.56 178.064 233.966C177.527 232.364 177.258 230.352 177.258 227.932C177.258 225.614 177.476 223.56 177.91 221.77C178.345 219.972 178.976 218.459 179.802 217.232C180.629 215.996 181.626 215.058 182.794 214.419C183.97 213.78 185.295 213.46 186.77 213.46C188.236 213.46 189.54 213.754 190.682 214.342C191.832 214.922 192.77 215.732 193.494 216.771C194.219 217.811 194.687 219.009 194.9 220.364H191.781C191.491 219.188 190.929 218.212 190.094 217.436C189.258 216.661 188.15 216.273 186.77 216.273C184.741 216.273 183.143 217.155 181.976 218.919C180.817 220.683 180.233 223.159 180.224 226.347H180.429C180.906 225.622 181.473 225.004 182.129 224.493C182.794 223.973 183.527 223.572 184.328 223.291C185.129 223.01 185.977 222.869 186.872 222.869C188.372 222.869 189.744 223.244 190.988 223.994C192.233 224.736 193.23 225.763 193.98 227.075C194.73 228.379 195.105 229.875 195.105 231.563C195.105 233.182 194.743 234.665 194.018 236.011C193.294 237.349 192.275 238.415 190.963 239.207C189.659 239.991 188.125 240.375 186.361 240.358ZM186.361 237.545C187.434 237.545 188.398 237.277 189.25 236.74C190.111 236.203 190.788 235.483 191.282 234.58C191.785 233.676 192.037 232.67 192.037 231.563C192.037 230.48 191.794 229.496 191.308 228.609C190.831 227.714 190.17 227.003 189.327 226.474C188.491 225.946 187.537 225.682 186.463 225.682C185.653 225.682 184.899 225.844 184.2 226.168C183.501 226.483 182.888 226.918 182.359 227.472C181.839 228.026 181.43 228.661 181.132 229.376C180.834 230.084 180.684 230.83 180.684 231.614C180.684 232.653 180.927 233.625 181.413 234.528C181.907 235.432 182.581 236.161 183.433 236.714C184.294 237.268 185.27 237.545 186.361 237.545Z" fill="#6AB579"/>
<path d="M186.361 240.358C185.287 240.341 184.213 240.136 183.139 239.744C182.065 239.352 181.085 238.692 180.199 237.763C179.312 236.825 178.601 235.56 178.064 233.966C177.527 232.364 177.258 230.352 177.258 227.932C177.258 225.614 177.476 223.56 177.91 221.77C178.345 219.972 178.976 218.459 179.802 217.232C180.629 215.996 181.626 215.058 182.794 214.419C183.97 213.78 185.295 213.46 186.77 213.46C188.236 213.46 189.54 213.754 190.682 214.342C191.832 214.922 192.77 215.732 193.494 216.771C194.219 217.811 194.687 219.009 194.9 220.364H191.781C191.491 219.188 190.929 218.212 190.094 217.436C189.258 216.661 188.15 216.273 186.77 216.273C184.741 216.273 183.143 217.155 181.976 218.919C180.817 220.683 180.233 223.159 180.224 226.347H180.429C180.906 225.622 181.473 225.004 182.129 224.493C182.794 223.973 183.527 223.572 184.328 223.291C185.129 223.01 185.977 222.869 186.872 222.869C188.372 222.869 189.744 223.244 190.988 223.994C192.233 224.736 193.23 225.763 193.98 227.075C194.73 228.379 195.105 229.875 195.105 231.563C195.105 233.182 194.743 234.665 194.018 236.011C193.294 237.349 192.275 238.415 190.963 239.207C189.659 239.991 188.125 240.375 186.361 240.358ZM186.361 237.545C187.434 237.545 188.398 237.277 189.25 236.74C190.111 236.203 190.788 235.483 191.282 234.58C191.785 233.676 192.037 232.67 192.037 231.563C192.037 230.48 191.794 229.496 191.308 228.609C190.831 227.714 190.17 227.003 189.327 226.474C188.491 225.946 187.537 225.682 186.463 225.682C185.653 225.682 184.899 225.844 184.2 226.168C183.501 226.483 182.888 226.918 182.359 227.472C181.839 228.026 181.43 228.661 181.132 229.376C180.834 230.084 180.684 230.83 180.684 231.614C180.684 232.653 180.927 233.625 181.413 234.528C181.907 235.432 182.581 236.161 183.433 236.714C184.294 237.268 185.27 237.545 186.361 237.545Z" fill="#949494"/>
<path d="M200.132 240V237.699L208.774 228.239C209.789 227.131 210.624 226.168 211.28 225.349C211.936 224.523 212.422 223.747 212.737 223.023C213.061 222.29 213.223 221.523 213.223 220.722C213.223 219.801 213.002 219.004 212.558 218.331C212.124 217.658 211.527 217.138 210.769 216.771C210.01 216.405 209.158 216.222 208.212 216.222C207.206 216.222 206.328 216.43 205.578 216.848C204.837 217.257 204.262 217.832 203.852 218.574C203.452 219.315 203.252 220.185 203.252 221.182H200.235C200.235 219.648 200.588 218.301 201.296 217.142C202.003 215.983 202.966 215.08 204.185 214.432C205.412 213.784 206.789 213.46 208.314 213.46C209.848 213.46 211.208 213.784 212.392 214.432C213.577 215.08 214.506 215.953 215.179 217.053C215.852 218.152 216.189 219.375 216.189 220.722C216.189 221.685 216.014 222.626 215.665 223.547C215.324 224.459 214.727 225.477 213.875 226.602C213.031 227.719 211.86 229.082 210.36 230.693L204.479 236.983V237.188H216.649V240H200.132Z" fill="#6AB579"/>
<path d="M200.132 240V237.699L208.774 228.239C209.789 227.131 210.624 226.168 211.28 225.349C211.936 224.523 212.422 223.747 212.737 223.023C213.061 222.29 213.223 221.523 213.223 220.722C213.223 219.801 213.002 219.004 212.558 218.331C212.124 217.658 211.527 217.138 210.769 216.771C210.01 216.405 209.158 216.222 208.212 216.222C207.206 216.222 206.328 216.43 205.578 216.848C204.837 217.257 204.262 217.832 203.852 218.574C203.452 219.315 203.252 220.185 203.252 221.182H200.235C200.235 219.648 200.588 218.301 201.296 217.142C202.003 215.983 202.966 215.08 204.185 214.432C205.412 213.784 206.789 213.46 208.314 213.46C209.848 213.46 211.208 213.784 212.392 214.432C213.577 215.08 214.506 215.953 215.179 217.053C215.852 218.152 216.189 219.375 216.189 220.722C216.189 221.685 216.014 222.626 215.665 223.547C215.324 224.459 214.727 225.477 213.875 226.602C213.031 227.719 211.86 229.082 210.36 230.693L204.479 236.983V237.188H216.649V240H200.132Z" fill="#6AB579"/>
<path d="M200.132 240V237.699L208.774 228.239C209.789 227.131 210.624 226.168 211.28 225.349C211.936 224.523 212.422 223.747 212.737 223.023C213.061 222.29 213.223 221.523 213.223 220.722C213.223 219.801 213.002 219.004 212.558 218.331C212.124 217.658 211.527 217.138 210.769 216.771C210.01 216.405 209.158 216.222 208.212 216.222C207.206 216.222 206.328 216.43 205.578 216.848C204.837 217.257 204.262 217.832 203.852 218.574C203.452 219.315 203.252 220.185 203.252 221.182H200.235C200.235 219.648 200.588 218.301 201.296 217.142C202.003 215.983 202.966 215.08 204.185 214.432C205.412 213.784 206.789 213.46 208.314 213.46C209.848 213.46 211.208 213.784 212.392 214.432C213.577 215.08 214.506 215.953 215.179 217.053C215.852 218.152 216.189 219.375 216.189 220.722C216.189 221.685 216.014 222.626 215.665 223.547C215.324 224.459 214.727 225.477 213.875 226.602C213.031 227.719 211.86 229.082 210.36 230.693L204.479 236.983V237.188H216.649V240H200.132Z" fill="#6AB579"/>
<path d="M200.132 240V237.699L208.774 228.239C209.789 227.131 210.624 226.168 211.28 225.349C211.936 224.523 212.422 223.747 212.737 223.023C213.061 222.29 213.223 221.523 213.223 220.722C213.223 219.801 213.002 219.004 212.558 218.331C212.124 217.658 211.527 217.138 210.769 216.771C210.01 216.405 209.158 216.222 208.212 216.222C207.206 216.222 206.328 216.43 205.578 216.848C204.837 217.257 204.262 217.832 203.852 218.574C203.452 219.315 203.252 220.185 203.252 221.182H200.235C200.235 219.648 200.588 218.301 201.296 217.142C202.003 215.983 202.966 215.08 204.185 214.432C205.412 213.784 206.789 213.46 208.314 213.46C209.848 213.46 211.208 213.784 212.392 214.432C213.577 215.08 214.506 215.953 215.179 217.053C215.852 218.152 216.189 219.375 216.189 220.722C216.189 221.685 216.014 222.626 215.665 223.547C215.324 224.459 214.727 225.477 213.875 226.602C213.031 227.719 211.86 229.082 210.36 230.693L204.479 236.983V237.188H216.649V240H200.132Z" fill="#6AB579"/>
<path d="M200.132 240V237.699L208.774 228.239C209.789 227.131 210.624 226.168 211.28 225.349C211.936 224.523 212.422 223.747 212.737 223.023C213.061 222.29 213.223 221.523 213.223 220.722C213.223 219.801 213.002 219.004 212.558 218.331C212.124 217.658 211.527 217.138 210.769 216.771C210.01 216.405 209.158 216.222 208.212 216.222C207.206 216.222 206.328 216.43 205.578 216.848C204.837 217.257 204.262 217.832 203.852 218.574C203.452 219.315 203.252 220.185 203.252 221.182H200.235C200.235 219.648 200.588 218.301 201.296 217.142C202.003 215.983 202.966 215.08 204.185 214.432C205.412 213.784 206.789 213.46 208.314 213.46C209.848 213.46 211.208 213.784 212.392 214.432C213.577 215.08 214.506 215.953 215.179 217.053C215.852 218.152 216.189 219.375 216.189 220.722C216.189 221.685 216.014 222.626 215.665 223.547C215.324 224.459 214.727 225.477 213.875 226.602C213.031 227.719 211.86 229.082 210.36 230.693L204.479 236.983V237.188H216.649V240H200.132Z" fill="#6AB579"/>
<path d="M200.132 240V237.699L208.774 228.239C209.789 227.131 210.624 226.168 211.28 225.349C211.936 224.523 212.422 223.747 212.737 223.023C213.061 222.29 213.223 221.523 213.223 220.722C213.223 219.801 213.002 219.004 212.558 218.331C212.124 217.658 211.527 217.138 210.769 216.771C210.01 216.405 209.158 216.222 208.212 216.222C207.206 216.222 206.328 216.43 205.578 216.848C204.837 217.257 204.262 217.832 203.852 218.574C203.452 219.315 203.252 220.185 203.252 221.182H200.235C200.235 219.648 200.588 218.301 201.296 217.142C202.003 215.983 202.966 215.08 204.185 214.432C205.412 213.784 206.789 213.46 208.314 213.46C209.848 213.46 211.208 213.784 212.392 214.432C213.577 215.08 214.506 215.953 215.179 217.053C215.852 218.152 216.189 219.375 216.189 220.722C216.189 221.685 216.014 222.626 215.665 223.547C215.324 224.459 214.727 225.477 213.875 226.602C213.031 227.719 211.86 229.082 210.36 230.693L204.479 236.983V237.188H216.649V240H200.132Z" fill="#949494"/>
<path d="M537.978 86.4545V133H529.478L509.228 103.705H508.887V133H499.046V86.4545H507.682L527.773 115.727H528.182V86.4545H537.978Z" fill="#6AB579"/>
<path d="M588.881 109.727C588.881 114.803 587.919 119.121 585.995 122.682C584.086 126.242 581.48 128.962 578.177 130.841C574.889 132.705 571.192 133.636 567.086 133.636C562.949 133.636 559.237 132.697 555.949 130.818C552.661 128.939 550.063 126.22 548.154 122.659C546.245 119.098 545.29 114.788 545.29 109.727C545.29 104.652 546.245 100.333 548.154 96.7727C550.063 93.2121 552.661 90.5 555.949 88.6364C559.237 86.7576 562.949 85.8182 567.086 85.8182C571.192 85.8182 574.889 86.7576 578.177 88.6364C581.48 90.5 584.086 93.2121 585.995 96.7727C587.919 100.333 588.881 104.652 588.881 109.727ZM578.904 109.727C578.904 106.439 578.411 103.667 577.427 101.409C576.457 99.1515 575.086 97.4394 573.313 96.2727C571.54 95.1061 569.464 94.5227 567.086 94.5227C564.707 94.5227 562.631 95.1061 560.858 96.2727C559.086 97.4394 557.707 99.1515 556.722 101.409C555.752 103.667 555.267 106.439 555.267 109.727C555.267 113.015 555.752 115.788 556.722 118.045C557.707 120.303 559.086 122.015 560.858 123.182C562.631 124.348 564.707 124.932 567.086 124.932C569.464 124.932 571.54 124.348 573.313 123.182C575.086 122.015 576.457 120.303 577.427 118.045C578.411 115.788 578.904 113.015 578.904 109.727Z" fill="#6AB579"/>
<path d="M619.392 86.4545L630.642 121.818H631.074L642.347 86.4545H653.256L637.211 133H624.529L608.461 86.4545H619.392Z" fill="#6AB579"/>
<path d="M668.699 86.4545V133H658.858V86.4545H668.699Z" fill="#6AB579"/>
<path d="M676.796 133V86.4545H695.16C698.675 86.4545 701.675 87.0833 704.16 88.3409C706.66 89.5833 708.561 91.3485 709.864 93.6364C711.182 95.9091 711.841 98.5833 711.841 101.659C711.841 104.75 711.175 107.409 709.841 109.636C708.508 111.848 706.576 113.545 704.046 114.727C701.531 115.909 698.485 116.5 694.91 116.5H682.614V108.591H693.319C695.197 108.591 696.758 108.333 698 107.818C699.243 107.303 700.167 106.53 700.773 105.5C701.394 104.47 701.705 103.189 701.705 101.659C701.705 100.114 701.394 98.8106 700.773 97.75C700.167 96.6894 699.235 95.8864 697.978 95.3409C696.735 94.7803 695.167 94.5 693.273 94.5H686.637V133H676.796ZM701.932 111.818L713.5 133H702.637L691.319 111.818H701.932Z" fill="#6AB579"/>
<path d="M747.546 86.4545H757.387V116.682C757.387 120.076 756.576 123.045 754.955 125.591C753.349 128.136 751.099 130.121 748.205 131.545C745.311 132.955 741.94 133.659 738.091 133.659C734.228 133.659 730.849 132.955 727.955 131.545C725.061 130.121 722.811 128.136 721.205 125.591C719.599 123.045 718.796 120.076 718.796 116.682V86.4545H728.637V115.841C728.637 117.614 729.023 119.189 729.796 120.568C730.584 121.947 731.69 123.03 733.114 123.818C734.538 124.606 736.197 125 738.091 125C740 125 741.66 124.606 743.069 123.818C744.493 123.03 745.591 121.947 746.364 120.568C747.152 119.189 747.546 117.614 747.546 115.841V86.4545Z" fill="#6AB579"/>
<path d="M790.733 99.8409C790.552 98.0076 789.771 96.5833 788.393 95.5682C787.014 94.553 785.143 94.0454 782.779 94.0454C781.173 94.0454 779.817 94.2727 778.711 94.7273C777.605 95.1667 776.756 95.7803 776.165 96.5682C775.589 97.3561 775.302 98.25 775.302 99.25C775.271 100.083 775.446 100.811 775.824 101.432C776.218 102.053 776.756 102.591 777.438 103.045C778.12 103.485 778.908 103.871 779.802 104.205C780.696 104.523 781.65 104.795 782.665 105.023L786.847 106.023C788.877 106.477 790.741 107.083 792.438 107.841C794.135 108.598 795.605 109.53 796.847 110.636C798.089 111.742 799.052 113.045 799.733 114.545C800.43 116.045 800.786 117.765 800.802 119.705C800.786 122.553 800.059 125.023 798.62 127.114C797.196 129.189 795.135 130.803 792.438 131.955C789.756 133.091 786.521 133.659 782.733 133.659C778.976 133.659 775.703 133.083 772.915 131.932C770.142 130.78 767.976 129.076 766.415 126.818C764.87 124.545 764.059 121.735 763.983 118.386H773.506C773.612 119.947 774.059 121.25 774.847 122.295C775.65 123.326 776.718 124.106 778.052 124.636C779.4 125.152 780.923 125.409 782.62 125.409C784.286 125.409 785.733 125.167 786.961 124.682C788.203 124.197 789.165 123.523 789.847 122.659C790.529 121.795 790.87 120.803 790.87 119.682C790.87 118.636 790.559 117.758 789.938 117.045C789.332 116.333 788.438 115.727 787.256 115.227C786.089 114.727 784.658 114.273 782.961 113.864L777.893 112.591C773.968 111.636 770.87 110.144 768.597 108.114C766.324 106.083 765.196 103.348 765.211 99.9091C765.196 97.0909 765.946 94.6288 767.461 92.5227C768.991 90.4167 771.089 88.7727 773.756 87.5909C776.423 86.4091 779.453 85.8182 782.847 85.8182C786.302 85.8182 789.317 86.4091 791.893 87.5909C794.483 88.7727 796.499 90.4167 797.938 92.5227C799.377 94.6288 800.12 97.0682 800.165 99.8409H790.733Z" fill="#6AB579"/>
<path d="M807.421 133V86.4545H838.785V94.5682H817.262V105.659H837.171V113.773H817.262V124.886H838.875V133H807.421Z" fill="#6AB579"/>
<path d="M871.858 99.8409C871.677 98.0076 870.896 96.5833 869.518 95.5682C868.139 94.553 866.268 94.0454 863.904 94.0454C862.298 94.0454 860.942 94.2727 859.836 94.7273C858.73 95.1667 857.881 95.7803 857.29 96.5682C856.714 97.3561 856.427 98.25 856.427 99.25C856.396 100.083 856.571 100.811 856.949 101.432C857.343 102.053 857.881 102.591 858.563 103.045C859.245 103.485 860.033 103.871 860.927 104.205C861.821 104.523 862.775 104.795 863.79 105.023L867.972 106.023C870.002 106.477 871.866 107.083 873.563 107.841C875.26 108.598 876.73 109.53 877.972 110.636C879.214 111.742 880.177 113.045 880.858 114.545C881.555 116.045 881.911 117.765 881.927 119.705C881.911 122.553 881.184 125.023 879.745 127.114C878.321 129.189 876.26 130.803 873.563 131.955C870.881 133.091 867.646 133.659 863.858 133.659C860.101 133.659 856.828 133.083 854.04 131.932C851.267 130.78 849.101 129.076 847.54 126.818C845.995 124.545 845.184 121.735 845.108 118.386H854.631C854.737 119.947 855.184 121.25 855.972 122.295C856.775 123.326 857.843 124.106 859.177 124.636C860.525 125.152 862.048 125.409 863.745 125.409C865.411 125.409 866.858 125.167 868.086 124.682C869.328 124.197 870.29 123.523 870.972 122.659C871.654 121.795 871.995 120.803 871.995 119.682C871.995 118.636 871.684 117.758 871.063 117.045C870.457 116.333 869.563 115.727 868.381 115.227C867.214 114.727 865.783 114.273 864.086 113.864L859.018 112.591C855.093 111.636 851.995 110.144 849.722 108.114C847.449 106.083 846.321 103.348 846.336 99.9091C846.321 97.0909 847.071 94.6288 848.586 92.5227C850.116 90.4167 852.214 88.7727 854.881 87.5909C857.548 86.4091 860.578 85.8182 863.972 85.8182C867.427 85.8182 870.442 86.4091 873.018 87.5909C875.608 88.7727 877.624 90.4167 879.063 92.5227C880.502 94.6288 881.245 97.0682 881.29 99.8409H871.858Z" fill="#6AB579"/>
<path d="M509.318 223.545C506.863 223.545 504.75 222.966 502.977 221.807C501.204 220.648 499.84 219.051 498.886 217.017C497.931 214.983 497.454 212.659 497.454 210.045C497.454 207.386 497.943 205.04 498.92 203.006C499.909 200.96 501.284 199.364 503.045 198.216C504.818 197.057 506.886 196.477 509.25 196.477C511.09 196.477 512.75 196.818 514.227 197.5C515.704 198.182 516.914 199.136 517.858 200.364C518.801 201.591 519.386 203.023 519.613 204.659H515.59C515.284 203.466 514.602 202.409 513.545 201.489C512.5 200.557 511.09 200.091 509.318 200.091C507.75 200.091 506.375 200.5 505.193 201.318C504.022 202.125 503.108 203.267 502.448 204.744C501.801 206.21 501.477 207.932 501.477 209.909C501.477 211.932 501.795 213.693 502.431 215.193C503.079 216.693 503.988 217.858 505.159 218.688C506.34 219.517 507.727 219.932 509.318 219.932C510.363 219.932 511.312 219.75 512.164 219.386C513.017 219.023 513.738 218.5 514.329 217.818C514.92 217.136 515.34 216.318 515.59 215.364H519.613C519.386 216.909 518.823 218.301 517.926 219.54C517.039 220.767 515.863 221.744 514.397 222.472C512.943 223.188 511.25 223.545 509.318 223.545Z" fill="#949494"/>
<path d="M529.517 207.25V223H525.494V188.091H529.517V200.909H529.858C530.471 199.557 531.392 198.483 532.619 197.688C533.858 196.881 535.505 196.477 537.562 196.477C539.346 196.477 540.909 196.835 542.25 197.551C543.59 198.256 544.63 199.341 545.369 200.807C546.119 202.261 546.494 204.114 546.494 206.364V223H542.471V206.636C542.471 204.557 541.931 202.949 540.852 201.812C539.784 200.665 538.301 200.091 536.403 200.091C535.085 200.091 533.903 200.369 532.858 200.926C531.823 201.483 531.005 202.295 530.403 203.364C529.812 204.432 529.517 205.727 529.517 207.25Z" fill="#949494"/>
<path d="M564.831 223.545C562.308 223.545 560.132 222.989 558.302 221.875C556.484 220.75 555.081 219.182 554.092 217.17C553.115 215.148 552.626 212.795 552.626 210.114C552.626 207.432 553.115 205.068 554.092 203.023C555.081 200.966 556.456 199.364 558.217 198.216C559.99 197.057 562.058 196.477 564.421 196.477C565.785 196.477 567.132 196.705 568.461 197.159C569.791 197.614 571.001 198.352 572.092 199.375C573.183 200.386 574.052 201.727 574.7 203.398C575.348 205.068 575.671 207.125 575.671 209.568V211.273H555.49V207.795H571.581C571.581 206.318 571.285 205 570.694 203.841C570.115 202.682 569.285 201.767 568.206 201.097C567.137 200.426 565.876 200.091 564.421 200.091C562.819 200.091 561.433 200.489 560.262 201.284C559.103 202.068 558.211 203.091 557.586 204.352C556.961 205.614 556.649 206.966 556.649 208.409V210.727C556.649 212.705 556.99 214.381 557.671 215.756C558.365 217.119 559.325 218.159 560.552 218.875C561.779 219.58 563.206 219.932 564.831 219.932C565.887 219.932 566.842 219.784 567.694 219.489C568.558 219.182 569.302 218.727 569.927 218.125C570.552 217.511 571.035 216.75 571.376 215.841L575.262 216.932C574.853 218.25 574.166 219.409 573.2 220.409C572.234 221.398 571.041 222.17 569.62 222.727C568.2 223.273 566.603 223.545 564.831 223.545Z" fill="#949494"/>
<path d="M592.427 223.545C589.973 223.545 587.859 222.966 586.086 221.807C584.313 220.648 582.95 219.051 581.995 217.017C581.041 214.983 580.563 212.659 580.563 210.045C580.563 207.386 581.052 205.04 582.029 203.006C583.018 200.96 584.393 199.364 586.154 198.216C587.927 197.057 589.995 196.477 592.359 196.477C594.2 196.477 595.859 196.818 597.336 197.5C598.813 198.182 600.024 199.136 600.967 200.364C601.91 201.591 602.495 203.023 602.723 204.659H598.7C598.393 203.466 597.711 202.409 596.654 201.489C595.609 200.557 594.2 200.091 592.427 200.091C590.859 200.091 589.484 200.5 588.302 201.318C587.132 202.125 586.217 203.267 585.558 204.744C584.91 206.21 584.586 207.932 584.586 209.909C584.586 211.932 584.904 213.693 585.541 215.193C586.188 216.693 587.098 217.858 588.268 218.688C589.45 219.517 590.836 219.932 592.427 219.932C593.473 219.932 594.421 219.75 595.274 219.386C596.126 219.023 596.848 218.5 597.438 217.818C598.029 217.136 598.45 216.318 598.7 215.364H602.723C602.495 216.909 601.933 218.301 601.035 219.54C600.149 220.767 598.973 221.744 597.507 222.472C596.052 223.188 594.359 223.545 592.427 223.545Z" fill="#949494"/>
<path d="M612.353 213.455L612.285 208.477H613.103L624.558 196.818H629.535L617.331 209.159H616.99L612.353 213.455ZM608.603 223V188.091H612.626V223H608.603ZM625.24 223L615.012 210.045L617.876 207.25L630.353 223H625.24Z" fill="#949494"/>
<path d="M644.612 223.545C642.089 223.545 639.913 222.989 638.083 221.875C636.265 220.75 634.862 219.182 633.873 217.17C632.896 215.148 632.407 212.795 632.407 210.114C632.407 207.432 632.896 205.068 633.873 203.023C634.862 200.966 636.237 199.364 637.998 198.216C639.771 197.057 641.839 196.477 644.203 196.477C645.566 196.477 646.913 196.705 648.242 197.159C649.572 197.614 650.782 198.352 651.873 199.375C652.964 200.386 653.833 201.727 654.481 203.398C655.129 205.068 655.453 207.125 655.453 209.568V211.273H635.271V207.795H651.362C651.362 206.318 651.066 205 650.475 203.841C649.896 202.682 649.066 201.767 647.987 201.097C646.919 200.426 645.657 200.091 644.203 200.091C642.6 200.091 641.214 200.489 640.044 201.284C638.885 202.068 637.992 203.091 637.367 204.352C636.742 205.614 636.43 206.966 636.43 208.409V210.727C636.43 212.705 636.771 214.381 637.453 215.756C638.146 217.119 639.106 218.159 640.333 218.875C641.561 219.58 642.987 219.932 644.612 219.932C645.669 219.932 646.623 219.784 647.475 219.489C648.339 219.182 649.083 218.727 649.708 218.125C650.333 217.511 650.816 216.75 651.157 215.841L655.044 216.932C654.635 218.25 653.947 219.409 652.981 220.409C652.015 221.398 650.822 222.17 649.402 222.727C647.981 223.273 646.384 223.545 644.612 223.545Z" fill="#949494"/>
<path d="M671.458 223.545C669.277 223.545 667.35 222.994 665.68 221.892C664.01 220.778 662.703 219.21 661.76 217.188C660.816 215.153 660.345 212.75 660.345 209.977C660.345 207.227 660.816 204.841 661.76 202.818C662.703 200.795 664.015 199.233 665.697 198.131C667.379 197.028 669.322 196.477 671.527 196.477C673.231 196.477 674.578 196.761 675.566 197.33C676.566 197.886 677.328 198.523 677.85 199.239C678.385 199.943 678.799 200.523 679.095 200.977H679.436V188.091H683.458V223H679.572V218.977H679.095C678.799 219.455 678.379 220.057 677.833 220.784C677.288 221.5 676.51 222.142 675.498 222.71C674.487 223.267 673.14 223.545 671.458 223.545ZM672.004 219.932C673.617 219.932 674.981 219.511 676.095 218.67C677.208 217.818 678.055 216.642 678.635 215.142C679.214 213.631 679.504 211.886 679.504 209.909C679.504 207.955 679.22 206.244 678.652 204.778C678.083 203.301 677.242 202.153 676.129 201.335C675.015 200.506 673.64 200.091 672.004 200.091C670.299 200.091 668.879 200.528 667.742 201.403C666.617 202.267 665.771 203.443 665.203 204.932C664.646 206.409 664.367 208.068 664.367 209.909C664.367 211.773 664.652 213.466 665.22 214.989C665.799 216.5 666.652 217.705 667.777 218.602C668.913 219.489 670.322 219.932 672.004 219.932Z" fill="#949494"/>
<path d="M710.816 223L702.839 196.818H707.066L712.725 216.864H712.998L718.589 196.818H722.885L728.407 216.795H728.68L734.339 196.818H738.566L730.589 223H726.635L720.907 202.886H720.498L714.771 223H710.816Z" fill="#949494"/>
<path d="M743.885 223V196.818H747.907V223H743.885ZM745.93 192.455C745.146 192.455 744.47 192.188 743.902 191.653C743.345 191.119 743.066 190.477 743.066 189.727C743.066 188.977 743.345 188.335 743.902 187.801C744.47 187.267 745.146 187 745.93 187C746.714 187 747.384 187.267 747.941 187.801C748.509 188.335 748.794 188.977 748.794 189.727C748.794 190.477 748.509 191.119 747.941 191.653C747.384 192.188 746.714 192.455 745.93 192.455Z" fill="#949494"/>
<path d="M766.661 196.818V200.227H753.093V196.818H766.661ZM757.048 190.545H761.071V215.5C761.071 216.636 761.235 217.489 761.565 218.057C761.906 218.614 762.338 218.989 762.86 219.182C763.394 219.364 763.957 219.455 764.548 219.455C764.991 219.455 765.355 219.432 765.639 219.386C765.923 219.33 766.15 219.284 766.321 219.25L767.139 222.864C766.866 222.966 766.485 223.068 765.997 223.17C765.508 223.284 764.889 223.341 764.139 223.341C763.002 223.341 761.889 223.097 760.798 222.608C759.718 222.119 758.821 221.375 758.105 220.375C757.4 219.375 757.048 218.114 757.048 216.591V190.545Z" fill="#949494"/>
<path d="M777.298 207.25V223H773.275V188.091H777.298V200.909H777.639C778.252 199.557 779.173 198.483 780.4 197.688C781.639 196.881 783.286 196.477 785.343 196.477C787.127 196.477 788.69 196.835 790.031 197.551C791.372 198.256 792.411 199.341 793.15 200.807C793.9 202.261 794.275 204.114 794.275 206.364V223H790.252V206.636C790.252 204.557 789.713 202.949 788.633 201.812C787.565 200.665 786.082 200.091 784.184 200.091C782.866 200.091 781.684 200.369 780.639 200.926C779.605 201.483 778.786 202.295 778.184 203.364C777.593 204.432 777.298 205.727 777.298 207.25Z" fill="#949494"/>
<path d="M450.609 82L416.609 115.51L403.392 102.485L393 112.73L416.609 136L461 92.2445L450.609 82Z" fill="#6AB579"/>
<defs>
<filter id="filter0_d_263_42" x="34" y="39" width="307" height="307" filterUnits="userSpaceOnUse" color-interpolation-filters="sRGB">
<feFlood flood-opacity="0" result="BackgroundImageFix"/>
<feColorMatrix in="SourceAlpha" type="matrix" values="0 0 0 0 0 0 0 0 0 0 0 0 0 0 0 0 0 0 127 0" result="hardAlpha"/>
<feOffset dx="5" dy="5"/>
<feGaussianBlur stdDeviation="15"/>
<feComposite in2="hardAlpha" operator="out"/>
<feColorMatrix type="matrix" values="0 0 0 0 0 0 0 0 0 0 0 0 0 0 0 0 0 0 0.25 0"/>
<feBlend mode="normal" in2="BackgroundImageFix" result="effect1_dropShadow_263_42"/>
<feBlend mode="normal" in="SourceGraphic" in2="effect1_dropShadow_263_42" result="shape"/>
</filter>
<filter id="filter1_d_263_42" x="67" y="72" width="235" height="235" filterUnits="userSpaceOnUse" color-interpolation-filters="sRGB">
<feFlood flood-opacity="0" result="BackgroundImageFix"/>
<feColorMatrix in="SourceAlpha" type="matrix" values="0 0 0 0 0 0 0 0 0 0 0 0 0 0 0 0 0 0 127 0" result="hardAlpha"/>
<feOffset dx="2" dy="2"/>
<feGaussianBlur stdDeviation="10"/>
<feComposite in2="hardAlpha" operator="out"/>
<feColorMatrix type="matrix" values="0 0 0 0 0 0 0 0 0 0 0 0 0 0 0 0 0 0 0.25 0"/>
<feBlend mode="normal" in2="BackgroundImageFix" result="effect1_dropShadow_263_42"/>
<feBlend mode="normal" in="SourceGraphic" in2="effect1_dropShadow_263_42" result="shape"/>
</filter>
<linearGradient id="paint0_linear_263_42" x1="485" y1="0" x2="485" y2="373" gradientUnits="userSpaceOnUse">
<stop stop-color="white"/>
<stop offset="1" stop-color="#EFFFF0"/>
</linearGradient>
</defs>
</svg>
