<svg width="306" height="115" viewBox="0 0 306 115" fill="none" xmlns="http://www.w3.org/2000/svg">
<g clip-path="url(#clip0_265_63)">
<path d="M8 13.4156C8 10.4246 10.5847 8 13.7732 8H282.227C285.415 8 288 10.4246 288 13.4155V103.584C288 106.575 285.415 109 282.227 109H13.7732C10.5847 109 8 106.575 8 103.584V13.4156Z" fill="url(#paint0_linear_265_63)"/>
<path d="M146.185 86.0058L141.566 72.8788H143.97C146.806 81.1169 147.184 82.2784 147.481 83.3048C147.752 82.3594 148.184 81.0899 151.128 72.8788H153.532L148.697 86.0058H146.185Z" fill="#394EFF"/>
<path d="M155.8 86.0058V72.9058H158.042V86.0058H155.8Z" fill="#394EFF"/>
<path d="M184.27 80.4957C184.27 82.2783 184.108 83.4128 183.621 84.2501C182.865 85.5736 181.272 86.3029 178.949 86.3029C176.761 86.3029 175.14 85.6546 174.384 84.1961C173.925 83.3588 173.763 82.1163 173.763 80.6307V72.9058H176.005V80.5767C176.005 81.6571 176.086 82.4134 176.275 82.8996C176.599 83.7369 177.409 84.3851 179.057 84.3851C180.488 84.3851 181.353 83.899 181.785 83.0076C182.001 82.5484 182.217 81.6841 182.217 80.6037V72.9058H184.27V80.4957V80.4957Z" fill="#394EFF"/>
<path d="M187.105 83.4937C188.105 83.9529 189.401 84.385 190.914 84.385C192.696 84.385 193.615 83.7368 193.615 82.5754C193.615 81.684 193.291 81.1978 191.562 80.6036L189.725 79.9824C187.808 79.3341 186.916 78.1997 186.916 76.336C186.916 74.3372 188.483 72.5815 191.859 72.5815C193.183 72.5815 194.479 72.7976 195.533 73.1758L195.046 75.0395C193.966 74.6883 192.669 74.4453 191.589 74.4453C189.779 74.4453 189.266 75.3906 189.266 76.1739C189.266 76.9572 189.509 77.4974 191.022 77.9836L192.858 78.6319C195.1 79.3881 195.884 80.5766 195.884 82.2782C195.884 84.358 194.452 86.2217 190.914 86.2217C189.266 86.2217 187.673 85.8436 186.538 85.3034L187.105 83.4937V83.4937Z" fill="#394EFF"/>
<path d="M202.069 86.0058V74.9585H198.152V72.9058H208.254V74.9585H204.338V86.0058H202.069Z" fill="#394EFF"/>
<path d="M225.487 86.0058V74.9585H221.571V72.9058H231.673V74.9585H227.756V86.0058H225.487Z" fill="#394EFF"/>
<path d="M214.629 86.2759C210.82 86.2759 208.417 83.0886 208.417 79.3072C208.417 75.1476 210.847 72.6086 214.953 72.6086C218.897 72.6086 220.949 75.6608 220.976 79.3072C221.003 83.0616 218.626 86.2759 214.629 86.2759ZM214.791 74.4994C212.198 74.4994 210.793 76.12 210.793 79.3342C210.793 83.2507 212.495 84.3851 214.737 84.3851C217.06 84.3851 218.626 82.9536 218.626 79.4423C218.68 76.3361 217.789 74.4994 214.791 74.4994V74.4994Z" fill="#394EFF"/>
<path d="M231.213 86.0058L236.264 72.8788H238.857L243.773 86.0058H241.369L240.045 82.5755H234.94L233.59 86.0328H231.213V86.0058ZM239.451 80.6578C238.236 77.2815 237.83 76.2011 237.56 75.2827C237.263 76.174 236.912 77.2004 235.562 80.6578H239.451Z" fill="#394EFF"/>
<path d="M245.934 86.0058V72.9058H248.365V84.034L254.901 83.953L254.929 86.0058H245.934Z" fill="#394EFF"/>
<path d="M103.346 59.8599L116.5 72.9869L103.346 86.0869H132.383V59.8599H103.346ZM129.573 83.2778H109.964L120.336 72.9869L109.964 62.6689H129.573V83.2778V83.2778Z" fill="#394EFF"/>
<path d="M168.387 80.3336C170.332 79.6853 171.088 78.3078 171.088 76.6332C171.088 74.8235 170.143 73.6891 168.765 73.2569C167.955 73.0138 166.794 72.9058 165.659 72.9058H161.608V86.0328H163.85V80.6577L164.606 80.6037C165.605 80.6037 166.091 80.7117 166.307 80.6847L169.252 86.0058H171.737L168.387 80.3336V80.3336ZM167.793 78.5509C167.253 78.848 166.47 78.9291 165.524 78.9291H163.85V74.7695H165.551C166.443 74.7695 167.118 74.7965 167.631 74.9856C168.333 75.2557 168.711 75.8769 168.711 76.7682C168.684 77.5785 168.387 78.2268 167.793 78.5509Z" fill="#394EFF"/>
<g filter="url(#filter0_d_265_63)">
<path d="M23.936 58.6444C23.936 40.2214 38.8708 25.2866 57.2938 25.2866V25.2866C75.7167 25.2866 90.6515 40.2214 90.6515 58.6444V58.6444C90.6515 77.0673 75.7167 92.0021 57.2938 92.0021V92.0021C38.8708 92.0021 23.936 77.0673 23.936 58.6444V58.6444Z" fill="#69AC77"/>
</g>
<g filter="url(#filter1_d_265_63)">
<path d="M83.6288 58.6443C83.6288 73.1887 71.8382 84.9793 57.2938 84.9793C42.7493 84.9793 30.9587 73.1887 30.9587 58.6443C30.9587 44.0998 42.7493 32.3092 57.2938 32.3092C71.8382 32.3092 83.6288 44.0998 83.6288 58.6443Z" fill="white"/>
</g>
<path d="M57.4285 58.9943C56.2724 58.9943 55.2877 58.6797 54.4743 58.0505C53.6609 57.4161 53.0394 56.4979 52.6097 55.2957C52.1799 54.0884 51.9651 52.6305 51.9651 50.9219C51.9651 49.2235 52.1799 47.7732 52.6097 46.5711C53.0445 45.3638 53.6686 44.443 54.482 43.8087C55.3005 43.1692 56.2826 42.8495 57.4285 42.8495C58.5744 42.8495 59.5541 43.1692 60.3674 43.8087C61.1859 44.443 61.81 45.3638 62.2397 46.5711C62.6746 47.7732 62.892 49.2235 62.892 50.9219C62.892 52.6305 62.6771 54.0884 62.2474 55.2957C61.8177 56.4979 61.1962 57.4161 60.3828 58.0505C59.5694 58.6797 58.5847 58.9943 57.4285 58.9943ZM57.4285 57.3061C58.5744 57.3061 59.4645 56.7537 60.0989 55.6487C60.7332 54.5437 61.0504 52.9681 61.0504 50.9219C61.0504 49.5611 60.9046 48.4025 60.613 47.4458C60.3265 46.4892 59.9122 45.7603 59.3699 45.2589C58.8328 44.7576 58.1856 44.5069 57.4285 44.5069C56.2929 44.5069 55.4053 45.0671 54.7659 46.1874C54.1264 47.3026 53.8067 48.8808 53.8067 50.9219C53.8067 52.2826 53.9499 53.4388 54.2364 54.3903C54.5229 55.3418 54.9347 56.0656 55.4718 56.5618C56.0141 57.058 56.6663 57.3061 57.4285 57.3061Z" fill="#6AB579"/>
<path d="M57.4285 58.9943C56.2724 58.9943 55.2877 58.6797 54.4743 58.0505C53.6609 57.4161 53.0394 56.4979 52.6097 55.2957C52.1799 54.0884 51.9651 52.6305 51.9651 50.9219C51.9651 49.2235 52.1799 47.7732 52.6097 46.5711C53.0445 45.3638 53.6686 44.443 54.482 43.8087C55.3005 43.1692 56.2826 42.8495 57.4285 42.8495C58.5744 42.8495 59.5541 43.1692 60.3674 43.8087C61.1859 44.443 61.81 45.3638 62.2397 46.5711C62.6746 47.7732 62.892 49.2235 62.892 50.9219C62.892 52.6305 62.6771 54.0884 62.2474 55.2957C61.8177 56.4979 61.1962 57.4161 60.3828 58.0505C59.5694 58.6797 58.5847 58.9943 57.4285 58.9943ZM57.4285 57.3061C58.5744 57.3061 59.4645 56.7537 60.0989 55.6487C60.7332 54.5437 61.0504 52.9681 61.0504 50.9219C61.0504 49.5611 60.9046 48.4025 60.613 47.4458C60.3265 46.4892 59.9122 45.7603 59.3699 45.2589C58.8328 44.7576 58.1856 44.5069 57.4285 44.5069C56.2929 44.5069 55.4053 45.0671 54.7659 46.1874C54.1264 47.3026 53.8067 48.8808 53.8067 50.9219C53.8067 52.2826 53.9499 53.4388 54.2364 54.3903C54.5229 55.3418 54.9347 56.0656 55.4718 56.5618C56.0141 57.058 56.6663 57.3061 57.4285 57.3061Z" fill="#6AB579"/>
<path d="M57.4285 58.9943C56.2724 58.9943 55.2877 58.6797 54.4743 58.0505C53.6609 57.4161 53.0394 56.4979 52.6097 55.2957C52.1799 54.0884 51.9651 52.6305 51.9651 50.9219C51.9651 49.2235 52.1799 47.7732 52.6097 46.5711C53.0445 45.3638 53.6686 44.443 54.482 43.8087C55.3005 43.1692 56.2826 42.8495 57.4285 42.8495C58.5744 42.8495 59.5541 43.1692 60.3674 43.8087C61.1859 44.443 61.81 45.3638 62.2397 46.5711C62.6746 47.7732 62.892 49.2235 62.892 50.9219C62.892 52.6305 62.6771 54.0884 62.2474 55.2957C61.8177 56.4979 61.1962 57.4161 60.3828 58.0505C59.5694 58.6797 58.5847 58.9943 57.4285 58.9943ZM57.4285 57.3061C58.5744 57.3061 59.4645 56.7537 60.0989 55.6487C60.7332 54.5437 61.0504 52.9681 61.0504 50.9219C61.0504 49.5611 60.9046 48.4025 60.613 47.4458C60.3265 46.4892 59.9122 45.7603 59.3699 45.2589C58.8328 44.7576 58.1856 44.5069 57.4285 44.5069C56.2929 44.5069 55.4053 45.0671 54.7659 46.1874C54.1264 47.3026 53.8067 48.8808 53.8067 50.9219C53.8067 52.2826 53.9499 53.4388 54.2364 54.3903C54.5229 55.3418 54.9347 56.0656 55.4718 56.5618C56.0141 57.058 56.6663 57.3061 57.4285 57.3061Z" fill="#6AB579"/>
<path d="M57.4285 58.9943C56.2724 58.9943 55.2877 58.6797 54.4743 58.0505C53.6609 57.4161 53.0394 56.4979 52.6097 55.2957C52.1799 54.0884 51.9651 52.6305 51.9651 50.9219C51.9651 49.2235 52.1799 47.7732 52.6097 46.5711C53.0445 45.3638 53.6686 44.443 54.482 43.8087C55.3005 43.1692 56.2826 42.8495 57.4285 42.8495C58.5744 42.8495 59.5541 43.1692 60.3674 43.8087C61.1859 44.443 61.81 45.3638 62.2397 46.5711C62.6746 47.7732 62.892 49.2235 62.892 50.9219C62.892 52.6305 62.6771 54.0884 62.2474 55.2957C61.8177 56.4979 61.1962 57.4161 60.3828 58.0505C59.5694 58.6797 58.5847 58.9943 57.4285 58.9943ZM57.4285 57.3061C58.5744 57.3061 59.4645 56.7537 60.0989 55.6487C60.7332 54.5437 61.0504 52.9681 61.0504 50.9219C61.0504 49.5611 60.9046 48.4025 60.613 47.4458C60.3265 46.4892 59.9122 45.7603 59.3699 45.2589C58.8328 44.7576 58.1856 44.5069 57.4285 44.5069C56.2929 44.5069 55.4053 45.0671 54.7659 46.1874C54.1264 47.3026 53.8067 48.8808 53.8067 50.9219C53.8067 52.2826 53.9499 53.4388 54.2364 54.3903C54.5229 55.3418 54.9347 56.0656 55.4718 56.5618C56.0141 57.058 56.6663 57.3061 57.4285 57.3061Z" fill="#6AB579"/>
<path d="M57.4285 58.9943C56.2724 58.9943 55.2877 58.6797 54.4743 58.0505C53.6609 57.4161 53.0394 56.4979 52.6097 55.2957C52.1799 54.0884 51.9651 52.6305 51.9651 50.9219C51.9651 49.2235 52.1799 47.7732 52.6097 46.5711C53.0445 45.3638 53.6686 44.443 54.482 43.8087C55.3005 43.1692 56.2826 42.8495 57.4285 42.8495C58.5744 42.8495 59.5541 43.1692 60.3674 43.8087C61.1859 44.443 61.81 45.3638 62.2397 46.5711C62.6746 47.7732 62.892 49.2235 62.892 50.9219C62.892 52.6305 62.6771 54.0884 62.2474 55.2957C61.8177 56.4979 61.1962 57.4161 60.3828 58.0505C59.5694 58.6797 58.5847 58.9943 57.4285 58.9943ZM57.4285 57.3061C58.5744 57.3061 59.4645 56.7537 60.0989 55.6487C60.7332 54.5437 61.0504 52.9681 61.0504 50.9219C61.0504 49.5611 60.9046 48.4025 60.613 47.4458C60.3265 46.4892 59.9122 45.7603 59.3699 45.2589C58.8328 44.7576 58.1856 44.5069 57.4285 44.5069C56.2929 44.5069 55.4053 45.0671 54.7659 46.1874C54.1264 47.3026 53.8067 48.8808 53.8067 50.9219C53.8067 52.2826 53.9499 53.4388 54.2364 54.3903C54.5229 55.3418 54.9347 56.0656 55.4718 56.5618C56.0141 57.058 56.6663 57.3061 57.4285 57.3061Z" fill="#6AB579"/>
<path d="M57.4285 58.9943C56.2724 58.9943 55.2877 58.6797 54.4743 58.0505C53.6609 57.4161 53.0394 56.4979 52.6097 55.2957C52.1799 54.0884 51.9651 52.6305 51.9651 50.9219C51.9651 49.2235 52.1799 47.7732 52.6097 46.5711C53.0445 45.3638 53.6686 44.443 54.482 43.8087C55.3005 43.1692 56.2826 42.8495 57.4285 42.8495C58.5744 42.8495 59.5541 43.1692 60.3674 43.8087C61.1859 44.443 61.81 45.3638 62.2397 46.5711C62.6746 47.7732 62.892 49.2235 62.892 50.9219C62.892 52.6305 62.6771 54.0884 62.2474 55.2957C61.8177 56.4979 61.1962 57.4161 60.3828 58.0505C59.5694 58.6797 58.5847 58.9943 57.4285 58.9943ZM57.4285 57.3061C58.5744 57.3061 59.4645 56.7537 60.0989 55.6487C60.7332 54.5437 61.0504 52.9681 61.0504 50.9219C61.0504 49.5611 60.9046 48.4025 60.613 47.4458C60.3265 46.4892 59.9122 45.7603 59.3699 45.2589C58.8328 44.7576 58.1856 44.5069 57.4285 44.5069C56.2929 44.5069 55.4053 45.0671 54.7659 46.1874C54.1264 47.3026 53.8067 48.8808 53.8067 50.9219C53.8067 52.2826 53.9499 53.4388 54.2364 54.3903C54.5229 55.3418 54.9347 56.0656 55.4718 56.5618C56.0141 57.058 56.6663 57.3061 57.4285 57.3061Z" fill="#6AB579"/>
<path d="M52.3015 65.4215L50.0225 73.8883H49.2766L51.5556 65.4215H52.3015Z" fill="#6AB579"/>
<path d="M52.3015 65.4215L50.0225 73.8883H49.2766L51.5556 65.4215H52.3015Z" fill="#6AB579"/>
<path d="M52.3015 65.4215L50.0225 73.8883H49.2766L51.5556 65.4215H52.3015Z" fill="#6AB579"/>
<path d="M52.3015 65.4215L50.0225 73.8883H49.2766L51.5556 65.4215H52.3015Z" fill="#6AB579"/>
<path d="M52.3015 65.4215L50.0225 73.8883H49.2766L51.5556 65.4215H52.3015Z" fill="#6AB579"/>
<path d="M52.3015 65.4215L50.0225 73.8883H49.2766L51.5556 65.4215H52.3015Z" fill="#949494"/>
<path d="M58.3365 72.9215C58.0464 72.9169 57.7564 72.8616 57.4663 72.7557C57.1763 72.6498 56.9115 72.4714 56.6721 72.2205C56.4327 71.9673 56.2405 71.6254 56.0955 71.195C55.9504 70.7622 55.8779 70.2189 55.8779 69.5651C55.8779 68.939 55.9366 68.3842 56.054 67.9008C56.1714 67.4151 56.3418 67.0064 56.5651 66.675C56.7884 66.3412 57.0577 66.0879 57.3731 65.9153C57.6908 65.7426 58.0487 65.6563 58.447 65.6563C58.8429 65.6563 59.1951 65.7357 59.5036 65.8946C59.8144 66.0511 60.0676 66.2698 60.2633 66.5506C60.4589 66.8315 60.5855 67.1549 60.6431 67.5209H59.8006C59.7223 67.2033 59.5704 66.9397 59.3448 66.7302C59.1192 66.5207 58.8199 66.416 58.447 66.416C57.8991 66.416 57.4675 66.6542 57.1521 67.1308C56.839 67.6073 56.6813 68.276 56.679 69.137H56.7343C56.8632 68.9413 57.0163 68.7744 57.1935 68.6363C57.3731 68.4959 57.5711 68.3877 57.7874 68.3117C58.0038 68.2357 58.2329 68.1977 58.4746 68.1977C58.8798 68.1977 59.2504 68.299 59.5865 68.5016C59.9226 68.7019 60.1919 68.9793 60.3945 69.3338C60.5971 69.686 60.6983 70.09 60.6983 70.5458C60.6983 70.9832 60.6005 71.3837 60.4048 71.7474C60.2092 72.1089 59.9341 72.3966 59.5796 72.6107C59.2274 72.8225 58.813 72.9261 58.3365 72.9215ZM58.3365 72.1618C58.6265 72.1618 58.8867 72.0893 59.1169 71.9443C59.3494 71.7992 59.5324 71.6047 59.6659 71.3607C59.8017 71.1167 59.8696 70.8451 59.8696 70.5458C59.8696 70.2534 59.804 69.9876 59.6728 69.7481C59.5439 69.5064 59.3655 69.3142 59.1376 69.1715C58.912 69.0288 58.6542 68.9574 58.3641 68.9574C58.1454 68.9574 57.9417 69.0011 57.7529 69.0886C57.5642 69.1738 57.3984 69.2912 57.2557 69.4408C57.1153 69.5905 57.0048 69.762 56.9242 69.9553C56.8436 70.1464 56.8033 70.3478 56.8033 70.5596C56.8033 70.8405 56.8689 71.1029 57.0002 71.3469C57.1337 71.5909 57.3155 71.7877 57.5457 71.9374C57.7782 72.087 58.0418 72.1618 58.3365 72.1618Z" fill="#6AB579"/>
<path d="M58.3365 72.9215C58.0464 72.9169 57.7564 72.8616 57.4663 72.7557C57.1763 72.6498 56.9115 72.4714 56.6721 72.2205C56.4327 71.9673 56.2405 71.6254 56.0955 71.195C55.9504 70.7622 55.8779 70.2189 55.8779 69.5651C55.8779 68.939 55.9366 68.3842 56.054 67.9008C56.1714 67.4151 56.3418 67.0064 56.5651 66.675C56.7884 66.3412 57.0577 66.0879 57.3731 65.9153C57.6908 65.7426 58.0487 65.6563 58.447 65.6563C58.8429 65.6563 59.1951 65.7357 59.5036 65.8946C59.8144 66.0511 60.0676 66.2698 60.2633 66.5506C60.4589 66.8315 60.5855 67.1549 60.6431 67.5209H59.8006C59.7223 67.2033 59.5704 66.9397 59.3448 66.7302C59.1192 66.5207 58.8199 66.416 58.447 66.416C57.8991 66.416 57.4675 66.6542 57.1521 67.1308C56.839 67.6073 56.6813 68.276 56.679 69.137H56.7343C56.8632 68.9413 57.0163 68.7744 57.1935 68.6363C57.3731 68.4959 57.5711 68.3877 57.7874 68.3117C58.0038 68.2357 58.2329 68.1977 58.4746 68.1977C58.8798 68.1977 59.2504 68.299 59.5865 68.5016C59.9226 68.7019 60.1919 68.9793 60.3945 69.3338C60.5971 69.686 60.6983 70.09 60.6983 70.5458C60.6983 70.9832 60.6005 71.3837 60.4048 71.7474C60.2092 72.1089 59.9341 72.3966 59.5796 72.6107C59.2274 72.8225 58.813 72.9261 58.3365 72.9215ZM58.3365 72.1618C58.6265 72.1618 58.8867 72.0893 59.1169 71.9443C59.3494 71.7992 59.5324 71.6047 59.6659 71.3607C59.8017 71.1167 59.8696 70.8451 59.8696 70.5458C59.8696 70.2534 59.804 69.9876 59.6728 69.7481C59.5439 69.5064 59.3655 69.3142 59.1376 69.1715C58.912 69.0288 58.6542 68.9574 58.3641 68.9574C58.1454 68.9574 57.9417 69.0011 57.7529 69.0886C57.5642 69.1738 57.3984 69.2912 57.2557 69.4408C57.1153 69.5905 57.0048 69.762 56.9242 69.9553C56.8436 70.1464 56.8033 70.3478 56.8033 70.5596C56.8033 70.8405 56.8689 71.1029 57.0002 71.3469C57.1337 71.5909 57.3155 71.7877 57.5457 71.9374C57.7782 72.087 58.0418 72.1618 58.3365 72.1618Z" fill="#6AB579"/>
<path d="M58.3365 72.9215C58.0464 72.9169 57.7564 72.8616 57.4663 72.7557C57.1763 72.6498 56.9115 72.4714 56.6721 72.2205C56.4327 71.9673 56.2405 71.6254 56.0955 71.195C55.9504 70.7622 55.8779 70.2189 55.8779 69.5651C55.8779 68.939 55.9366 68.3842 56.054 67.9008C56.1714 67.4151 56.3418 67.0064 56.5651 66.675C56.7884 66.3412 57.0577 66.0879 57.3731 65.9153C57.6908 65.7426 58.0487 65.6563 58.447 65.6563C58.8429 65.6563 59.1951 65.7357 59.5036 65.8946C59.8144 66.0511 60.0676 66.2698 60.2633 66.5506C60.4589 66.8315 60.5855 67.1549 60.6431 67.5209H59.8006C59.7223 67.2033 59.5704 66.9397 59.3448 66.7302C59.1192 66.5207 58.8199 66.416 58.447 66.416C57.8991 66.416 57.4675 66.6542 57.1521 67.1308C56.839 67.6073 56.6813 68.276 56.679 69.137H56.7343C56.8632 68.9413 57.0163 68.7744 57.1935 68.6363C57.3731 68.4959 57.5711 68.3877 57.7874 68.3117C58.0038 68.2357 58.2329 68.1977 58.4746 68.1977C58.8798 68.1977 59.2504 68.299 59.5865 68.5016C59.9226 68.7019 60.1919 68.9793 60.3945 69.3338C60.5971 69.686 60.6983 70.09 60.6983 70.5458C60.6983 70.9832 60.6005 71.3837 60.4048 71.7474C60.2092 72.1089 59.9341 72.3966 59.5796 72.6107C59.2274 72.8225 58.813 72.9261 58.3365 72.9215ZM58.3365 72.1618C58.6265 72.1618 58.8867 72.0893 59.1169 71.9443C59.3494 71.7992 59.5324 71.6047 59.6659 71.3607C59.8017 71.1167 59.8696 70.8451 59.8696 70.5458C59.8696 70.2534 59.804 69.9876 59.6728 69.7481C59.5439 69.5064 59.3655 69.3142 59.1376 69.1715C58.912 69.0288 58.6542 68.9574 58.3641 68.9574C58.1454 68.9574 57.9417 69.0011 57.7529 69.0886C57.5642 69.1738 57.3984 69.2912 57.2557 69.4408C57.1153 69.5905 57.0048 69.762 56.9242 69.9553C56.8436 70.1464 56.8033 70.3478 56.8033 70.5596C56.8033 70.8405 56.8689 71.1029 57.0002 71.3469C57.1337 71.5909 57.3155 71.7877 57.5457 71.9374C57.7782 72.087 58.0418 72.1618 58.3365 72.1618Z" fill="#6AB579"/>
<path d="M58.3365 72.9215C58.0464 72.9169 57.7564 72.8616 57.4663 72.7557C57.1763 72.6498 56.9115 72.4714 56.6721 72.2205C56.4327 71.9673 56.2405 71.6254 56.0955 71.195C55.9504 70.7622 55.8779 70.2189 55.8779 69.5651C55.8779 68.939 55.9366 68.3842 56.054 67.9008C56.1714 67.4151 56.3418 67.0064 56.5651 66.675C56.7884 66.3412 57.0577 66.0879 57.3731 65.9153C57.6908 65.7426 58.0487 65.6563 58.447 65.6563C58.8429 65.6563 59.1951 65.7357 59.5036 65.8946C59.8144 66.0511 60.0676 66.2698 60.2633 66.5506C60.4589 66.8315 60.5855 67.1549 60.6431 67.5209H59.8006C59.7223 67.2033 59.5704 66.9397 59.3448 66.7302C59.1192 66.5207 58.8199 66.416 58.447 66.416C57.8991 66.416 57.4675 66.6542 57.1521 67.1308C56.839 67.6073 56.6813 68.276 56.679 69.137H56.7343C56.8632 68.9413 57.0163 68.7744 57.1935 68.6363C57.3731 68.4959 57.5711 68.3877 57.7874 68.3117C58.0038 68.2357 58.2329 68.1977 58.4746 68.1977C58.8798 68.1977 59.2504 68.299 59.5865 68.5016C59.9226 68.7019 60.1919 68.9793 60.3945 69.3338C60.5971 69.686 60.6983 70.09 60.6983 70.5458C60.6983 70.9832 60.6005 71.3837 60.4048 71.7474C60.2092 72.1089 59.9341 72.3966 59.5796 72.6107C59.2274 72.8225 58.813 72.9261 58.3365 72.9215ZM58.3365 72.1618C58.6265 72.1618 58.8867 72.0893 59.1169 71.9443C59.3494 71.7992 59.5324 71.6047 59.6659 71.3607C59.8017 71.1167 59.8696 70.8451 59.8696 70.5458C59.8696 70.2534 59.804 69.9876 59.6728 69.7481C59.5439 69.5064 59.3655 69.3142 59.1376 69.1715C58.912 69.0288 58.6542 68.9574 58.3641 68.9574C58.1454 68.9574 57.9417 69.0011 57.7529 69.0886C57.5642 69.1738 57.3984 69.2912 57.2557 69.4408C57.1153 69.5905 57.0048 69.762 56.9242 69.9553C56.8436 70.1464 56.8033 70.3478 56.8033 70.5596C56.8033 70.8405 56.8689 71.1029 57.0002 71.3469C57.1337 71.5909 57.3155 71.7877 57.5457 71.9374C57.7782 72.087 58.0418 72.1618 58.3365 72.1618Z" fill="#6AB579"/>
<path d="M58.3365 72.9215C58.0464 72.9169 57.7564 72.8616 57.4663 72.7557C57.1763 72.6498 56.9115 72.4714 56.6721 72.2205C56.4327 71.9673 56.2405 71.6254 56.0955 71.195C55.9504 70.7622 55.8779 70.2189 55.8779 69.5651C55.8779 68.939 55.9366 68.3842 56.054 67.9008C56.1714 67.4151 56.3418 67.0064 56.5651 66.675C56.7884 66.3412 57.0577 66.0879 57.3731 65.9153C57.6908 65.7426 58.0487 65.6563 58.447 65.6563C58.8429 65.6563 59.1951 65.7357 59.5036 65.8946C59.8144 66.0511 60.0676 66.2698 60.2633 66.5506C60.4589 66.8315 60.5855 67.1549 60.6431 67.5209H59.8006C59.7223 67.2033 59.5704 66.9397 59.3448 66.7302C59.1192 66.5207 58.8199 66.416 58.447 66.416C57.8991 66.416 57.4675 66.6542 57.1521 67.1308C56.839 67.6073 56.6813 68.276 56.679 69.137H56.7343C56.8632 68.9413 57.0163 68.7744 57.1935 68.6363C57.3731 68.4959 57.5711 68.3877 57.7874 68.3117C58.0038 68.2357 58.2329 68.1977 58.4746 68.1977C58.8798 68.1977 59.2504 68.299 59.5865 68.5016C59.9226 68.7019 60.1919 68.9793 60.3945 69.3338C60.5971 69.686 60.6983 70.09 60.6983 70.5458C60.6983 70.9832 60.6005 71.3837 60.4048 71.7474C60.2092 72.1089 59.9341 72.3966 59.5796 72.6107C59.2274 72.8225 58.813 72.9261 58.3365 72.9215ZM58.3365 72.1618C58.6265 72.1618 58.8867 72.0893 59.1169 71.9443C59.3494 71.7992 59.5324 71.6047 59.6659 71.3607C59.8017 71.1167 59.8696 70.8451 59.8696 70.5458C59.8696 70.2534 59.804 69.9876 59.6728 69.7481C59.5439 69.5064 59.3655 69.3142 59.1376 69.1715C58.912 69.0288 58.6542 68.9574 58.3641 68.9574C58.1454 68.9574 57.9417 69.0011 57.7529 69.0886C57.5642 69.1738 57.3984 69.2912 57.2557 69.4408C57.1153 69.5905 57.0048 69.762 56.9242 69.9553C56.8436 70.1464 56.8033 70.3478 56.8033 70.5596C56.8033 70.8405 56.8689 71.1029 57.0002 71.3469C57.1337 71.5909 57.3155 71.7877 57.5457 71.9374C57.7782 72.087 58.0418 72.1618 58.3365 72.1618Z" fill="#6AB579"/>
<path d="M58.3365 72.9215C58.0464 72.9169 57.7564 72.8616 57.4663 72.7557C57.1763 72.6498 56.9115 72.4714 56.6721 72.2205C56.4327 71.9673 56.2405 71.6254 56.0955 71.195C55.9504 70.7622 55.8779 70.2189 55.8779 69.5651C55.8779 68.939 55.9366 68.3842 56.054 67.9008C56.1714 67.4151 56.3418 67.0064 56.5651 66.675C56.7884 66.3412 57.0577 66.0879 57.3731 65.9153C57.6908 65.7426 58.0487 65.6563 58.447 65.6563C58.8429 65.6563 59.1951 65.7357 59.5036 65.8946C59.8144 66.0511 60.0676 66.2698 60.2633 66.5506C60.4589 66.8315 60.5855 67.1549 60.6431 67.5209H59.8006C59.7223 67.2033 59.5704 66.9397 59.3448 66.7302C59.1192 66.5207 58.8199 66.416 58.447 66.416C57.8991 66.416 57.4675 66.6542 57.1521 67.1308C56.839 67.6073 56.6813 68.276 56.679 69.137H56.7343C56.8632 68.9413 57.0163 68.7744 57.1935 68.6363C57.3731 68.4959 57.5711 68.3877 57.7874 68.3117C58.0038 68.2357 58.2329 68.1977 58.4746 68.1977C58.8798 68.1977 59.2504 68.299 59.5865 68.5016C59.9226 68.7019 60.1919 68.9793 60.3945 69.3338C60.5971 69.686 60.6983 70.09 60.6983 70.5458C60.6983 70.9832 60.6005 71.3837 60.4048 71.7474C60.2092 72.1089 59.9341 72.3966 59.5796 72.6107C59.2274 72.8225 58.813 72.9261 58.3365 72.9215ZM58.3365 72.1618C58.6265 72.1618 58.8867 72.0893 59.1169 71.9443C59.3494 71.7992 59.5324 71.6047 59.6659 71.3607C59.8017 71.1167 59.8696 70.8451 59.8696 70.5458C59.8696 70.2534 59.804 69.9876 59.6728 69.7481C59.5439 69.5064 59.3655 69.3142 59.1376 69.1715C58.912 69.0288 58.6542 68.9574 58.3641 68.9574C58.1454 68.9574 57.9417 69.0011 57.7529 69.0886C57.5642 69.1738 57.3984 69.2912 57.2557 69.4408C57.1153 69.5905 57.0048 69.762 56.9242 69.9553C56.8436 70.1464 56.8033 70.3478 56.8033 70.5596C56.8033 70.8405 56.8689 71.1029 57.0002 71.3469C57.1337 71.5909 57.3155 71.7877 57.5457 71.9374C57.7782 72.087 58.0418 72.1618 58.3365 72.1618Z" fill="#949494"/>
<path d="M62.0562 72.8248V72.2032L64.3905 69.648C64.6644 69.3487 64.89 69.0886 65.0673 68.8676C65.2445 68.6443 65.3758 68.4348 65.4609 68.2392C65.5484 68.0412 65.5921 67.834 65.5921 67.6176C65.5921 67.369 65.5323 67.1538 65.4126 66.9719C65.2952 66.7901 65.134 66.6496 64.9292 66.5506C64.7243 66.4517 64.4941 66.4022 64.2386 66.4022C63.9669 66.4022 63.7298 66.4586 63.5272 66.5714C63.327 66.6819 63.1716 66.8372 63.0611 67.0375C62.9529 67.2378 62.8988 67.4726 62.8988 67.7419H62.0839C62.0839 67.3276 62.1794 66.9639 62.3705 66.6508C62.5615 66.3377 62.8217 66.0937 63.1509 65.9187C63.4823 65.7438 63.8541 65.6563 64.2662 65.6563C64.6805 65.6563 65.0477 65.7438 65.3677 65.9187C65.6877 66.0937 65.9386 66.3297 66.1205 66.6266C66.3023 66.9236 66.3932 67.2539 66.3932 67.6176C66.3932 67.8778 66.3461 68.1321 66.2517 68.3807C66.1596 68.6271 65.9984 68.9022 65.7682 69.206C65.5403 69.5076 65.2238 69.8759 64.8187 70.311L63.2303 72.0099V72.0651H66.5176V72.8248H62.0562Z" fill="#6AB579"/>
<path d="M62.0562 72.8248V72.2032L64.3905 69.648C64.6644 69.3487 64.89 69.0886 65.0673 68.8676C65.2445 68.6443 65.3758 68.4348 65.4609 68.2392C65.5484 68.0412 65.5921 67.834 65.5921 67.6176C65.5921 67.369 65.5323 67.1538 65.4126 66.9719C65.2952 66.7901 65.134 66.6496 64.9292 66.5506C64.7243 66.4517 64.4941 66.4022 64.2386 66.4022C63.9669 66.4022 63.7298 66.4586 63.5272 66.5714C63.327 66.6819 63.1716 66.8372 63.0611 67.0375C62.9529 67.2378 62.8988 67.4726 62.8988 67.7419H62.0839C62.0839 67.3276 62.1794 66.9639 62.3705 66.6508C62.5615 66.3377 62.8217 66.0937 63.1509 65.9187C63.4823 65.7438 63.8541 65.6563 64.2662 65.6563C64.6805 65.6563 65.0477 65.7438 65.3677 65.9187C65.6877 66.0937 65.9386 66.3297 66.1205 66.6266C66.3023 66.9236 66.3932 67.2539 66.3932 67.6176C66.3932 67.8778 66.3461 68.1321 66.2517 68.3807C66.1596 68.6271 65.9984 68.9022 65.7682 69.206C65.5403 69.5076 65.2238 69.8759 64.8187 70.311L63.2303 72.0099V72.0651H66.5176V72.8248H62.0562Z" fill="#6AB579"/>
<path d="M62.0562 72.8248V72.2032L64.3905 69.648C64.6644 69.3487 64.89 69.0886 65.0673 68.8676C65.2445 68.6443 65.3758 68.4348 65.4609 68.2392C65.5484 68.0412 65.5921 67.834 65.5921 67.6176C65.5921 67.369 65.5323 67.1538 65.4126 66.9719C65.2952 66.7901 65.134 66.6496 64.9292 66.5506C64.7243 66.4517 64.4941 66.4022 64.2386 66.4022C63.9669 66.4022 63.7298 66.4586 63.5272 66.5714C63.327 66.6819 63.1716 66.8372 63.0611 67.0375C62.9529 67.2378 62.8988 67.4726 62.8988 67.7419H62.0839C62.0839 67.3276 62.1794 66.9639 62.3705 66.6508C62.5615 66.3377 62.8217 66.0937 63.1509 65.9187C63.4823 65.7438 63.8541 65.6563 64.2662 65.6563C64.6805 65.6563 65.0477 65.7438 65.3677 65.9187C65.6877 66.0937 65.9386 66.3297 66.1205 66.6266C66.3023 66.9236 66.3932 67.2539 66.3932 67.6176C66.3932 67.8778 66.3461 68.1321 66.2517 68.3807C66.1596 68.6271 65.9984 68.9022 65.7682 69.206C65.5403 69.5076 65.2238 69.8759 64.8187 70.311L63.2303 72.0099V72.0651H66.5176V72.8248H62.0562Z" fill="#6AB579"/>
<path d="M62.0562 72.8248V72.2032L64.3905 69.648C64.6644 69.3487 64.89 69.0886 65.0673 68.8676C65.2445 68.6443 65.3758 68.4348 65.4609 68.2392C65.5484 68.0412 65.5921 67.834 65.5921 67.6176C65.5921 67.369 65.5323 67.1538 65.4126 66.9719C65.2952 66.7901 65.134 66.6496 64.9292 66.5506C64.7243 66.4517 64.4941 66.4022 64.2386 66.4022C63.9669 66.4022 63.7298 66.4586 63.5272 66.5714C63.327 66.6819 63.1716 66.8372 63.0611 67.0375C62.9529 67.2378 62.8988 67.4726 62.8988 67.7419H62.0839C62.0839 67.3276 62.1794 66.9639 62.3705 66.6508C62.5615 66.3377 62.8217 66.0937 63.1509 65.9187C63.4823 65.7438 63.8541 65.6563 64.2662 65.6563C64.6805 65.6563 65.0477 65.7438 65.3677 65.9187C65.6877 66.0937 65.9386 66.3297 66.1205 66.6266C66.3023 66.9236 66.3932 67.2539 66.3932 67.6176C66.3932 67.8778 66.3461 68.1321 66.2517 68.3807C66.1596 68.6271 65.9984 68.9022 65.7682 69.206C65.5403 69.5076 65.2238 69.8759 64.8187 70.311L63.2303 72.0099V72.0651H66.5176V72.8248H62.0562Z" fill="#6AB579"/>
<path d="M62.0562 72.8248V72.2032L64.3905 69.648C64.6644 69.3487 64.89 69.0886 65.0673 68.8676C65.2445 68.6443 65.3758 68.4348 65.4609 68.2392C65.5484 68.0412 65.5921 67.834 65.5921 67.6176C65.5921 67.369 65.5323 67.1538 65.4126 66.9719C65.2952 66.7901 65.134 66.6496 64.9292 66.5506C64.7243 66.4517 64.4941 66.4022 64.2386 66.4022C63.9669 66.4022 63.7298 66.4586 63.5272 66.5714C63.327 66.6819 63.1716 66.8372 63.0611 67.0375C62.9529 67.2378 62.8988 67.4726 62.8988 67.7419H62.0839C62.0839 67.3276 62.1794 66.9639 62.3705 66.6508C62.5615 66.3377 62.8217 66.0937 63.1509 65.9187C63.4823 65.7438 63.8541 65.6563 64.2662 65.6563C64.6805 65.6563 65.0477 65.7438 65.3677 65.9187C65.6877 66.0937 65.9386 66.3297 66.1205 66.6266C66.3023 66.9236 66.3932 67.2539 66.3932 67.6176C66.3932 67.8778 66.3461 68.1321 66.2517 68.3807C66.1596 68.6271 65.9984 68.9022 65.7682 69.206C65.5403 69.5076 65.2238 69.8759 64.8187 70.311L63.2303 72.0099V72.0651H66.5176V72.8248H62.0562Z" fill="#6AB579"/>
<path d="M62.0562 72.8248V72.2032L64.3905 69.648C64.6644 69.3487 64.89 69.0886 65.0673 68.8676C65.2445 68.6443 65.3758 68.4348 65.4609 68.2392C65.5484 68.0412 65.5921 67.834 65.5921 67.6176C65.5921 67.369 65.5323 67.1538 65.4126 66.9719C65.2952 66.7901 65.134 66.6496 64.9292 66.5506C64.7243 66.4517 64.4941 66.4022 64.2386 66.4022C63.9669 66.4022 63.7298 66.4586 63.5272 66.5714C63.327 66.6819 63.1716 66.8372 63.0611 67.0375C62.9529 67.2378 62.8988 67.4726 62.8988 67.7419H62.0839C62.0839 67.3276 62.1794 66.9639 62.3705 66.6508C62.5615 66.3377 62.8217 66.0937 63.1509 65.9187C63.4823 65.7438 63.8541 65.6563 64.2662 65.6563C64.6805 65.6563 65.0477 65.7438 65.3677 65.9187C65.6877 66.0937 65.9386 66.3297 66.1205 66.6266C66.3023 66.9236 66.3932 67.2539 66.3932 67.6176C66.3932 67.8778 66.3461 68.1321 66.2517 68.3807C66.1596 68.6271 65.9984 68.9022 65.7682 69.206C65.5403 69.5076 65.2238 69.8759 64.8187 70.311L63.2303 72.0099V72.0651H66.5176V72.8248H62.0562Z" fill="#949494"/>
<path d="M153.309 31.3516V43.9236H151.013L145.544 36.0108H145.452V43.9236H142.793V31.3516H145.126L150.553 39.2582H150.663V31.3516H153.309Z" fill="#6AB579"/>
<path d="M167.058 37.6376C167.058 39.0086 166.798 40.1749 166.279 41.1367C165.763 42.0984 165.059 42.833 164.167 43.3405C163.279 43.8438 162.28 44.0955 161.171 44.0955C160.054 44.0955 159.051 43.8418 158.163 43.3343C157.275 42.8269 156.573 42.0923 156.058 41.1305C155.542 40.1688 155.284 39.0045 155.284 37.6376C155.284 36.2666 155.542 35.1003 156.058 34.1385C156.573 33.1768 157.275 32.4443 158.163 31.9409C159.051 31.4334 160.054 31.1797 161.171 31.1797C162.28 31.1797 163.279 31.4334 164.167 31.9409C165.059 32.4443 165.763 33.1768 166.279 34.1385C166.798 35.1003 167.058 36.2666 167.058 37.6376ZM164.363 37.6376C164.363 36.7495 164.23 36.0006 163.964 35.3908C163.702 34.7811 163.332 34.3186 162.853 34.0035C162.374 33.6884 161.814 33.5308 161.171 33.5308C160.529 33.5308 159.968 33.6884 159.489 34.0035C159.01 34.3186 158.638 34.7811 158.372 35.3908C158.11 36.0006 157.979 36.7495 157.979 37.6376C157.979 38.5257 158.11 39.2746 158.372 39.8844C158.638 40.4942 159.01 40.9566 159.489 41.2717C159.968 41.5868 160.529 41.7444 161.171 41.7444C161.814 41.7444 162.374 41.5868 162.853 41.2717C163.332 40.9566 163.702 40.4942 163.964 39.8844C164.23 39.2746 164.363 38.5257 164.363 37.6376Z" fill="#6AB579"/>
<path d="M175.299 31.3516L178.338 40.9034H178.455L181.5 31.3516H184.446L180.112 43.9236H176.687L172.347 31.3516H175.299Z" fill="#6AB579"/>
<path d="M188.617 31.3516V43.9236H185.959V31.3516H188.617Z" fill="#6AB579"/>
<path d="M190.804 43.9236V31.3516H195.764C196.714 31.3516 197.524 31.5214 198.195 31.8611C198.871 32.1967 199.384 32.6734 199.736 33.2914C200.092 33.9053 200.27 34.6276 200.27 35.4584C200.27 36.2932 200.09 37.0115 199.73 37.6131C199.37 38.2106 198.848 38.6689 198.165 38.9881C197.485 39.3073 196.663 39.4669 195.697 39.4669H192.376V37.3307H195.267C195.775 37.3307 196.196 37.2611 196.532 37.122C196.867 36.9828 197.117 36.7741 197.281 36.4958C197.448 36.2175 197.532 35.8717 197.532 35.4584C197.532 35.0409 197.448 34.689 197.281 34.4025C197.117 34.116 196.865 33.8991 196.526 33.7518C196.19 33.6004 195.766 33.5247 195.255 33.5247H193.462V43.9236H190.804ZM197.594 38.2024L200.718 43.9236H197.784L194.727 38.2024H197.594Z" fill="#6AB579"/>
<path d="M209.914 31.3516H212.572V39.5161C212.572 40.4328 212.353 41.2349 211.915 41.9224C211.481 42.61 210.874 43.1461 210.092 43.5308C209.31 43.9114 208.4 44.1017 207.36 44.1017C206.317 44.1017 205.404 43.9114 204.623 43.5308C203.841 43.1461 203.233 42.61 202.799 41.9224C202.366 41.2349 202.149 40.4328 202.149 39.5161V31.3516H204.807V39.2889C204.807 39.7677 204.911 40.1934 205.12 40.5658C205.333 40.9382 205.631 41.2308 206.016 41.4436C206.401 41.6564 206.849 41.7628 207.36 41.7628C207.876 41.7628 208.324 41.6564 208.705 41.4436C209.089 41.2308 209.386 40.9382 209.595 40.5658C209.808 40.1934 209.914 39.7677 209.914 39.2889V31.3516Z" fill="#6AB579"/>
<path d="M221.579 34.9673C221.53 34.4721 221.319 34.0874 220.947 33.8132C220.574 33.539 220.069 33.4019 219.431 33.4019C218.997 33.4019 218.631 33.4633 218.332 33.5861C218.033 33.7047 217.804 33.8705 217.644 34.0833C217.489 34.2961 217.411 34.5376 217.411 34.8077C217.403 35.0327 217.45 35.2292 217.552 35.397C217.659 35.5648 217.804 35.7101 217.988 35.8328C218.172 35.9515 218.385 36.0559 218.626 36.1459C218.868 36.2318 219.126 36.3055 219.4 36.3669L220.529 36.637C221.078 36.7598 221.581 36.9235 222.04 37.1281C222.498 37.3327 222.895 37.5844 223.23 37.8832C223.566 38.1819 223.826 38.5339 224.01 38.939C224.198 39.3442 224.295 39.8087 224.299 40.3325C224.295 41.1019 224.098 41.769 223.709 42.3337C223.325 42.8944 222.768 43.3302 222.04 43.6413C221.315 43.9482 220.441 44.1017 219.418 44.1017C218.403 44.1017 217.519 43.9462 216.766 43.6351C216.017 43.3241 215.432 42.8637 215.011 42.2539C214.593 41.64 214.374 40.8809 214.354 39.9765H216.926C216.955 40.398 217.075 40.7499 217.288 41.0323C217.505 41.3106 217.794 41.5214 218.154 41.6646C218.518 41.8037 218.929 41.8733 219.388 41.8733C219.838 41.8733 220.229 41.8078 220.56 41.6769C220.896 41.5459 221.156 41.3638 221.34 41.1305C221.524 40.8973 221.616 40.6292 221.616 40.3264C221.616 40.044 221.532 39.8066 221.364 39.6143C221.201 39.4219 220.959 39.2582 220.64 39.1232C220.325 38.9881 219.938 38.8653 219.48 38.7549L218.111 38.4111C217.051 38.1533 216.214 37.7502 215.6 37.2018C214.986 36.6534 214.681 35.9147 214.685 34.9857C214.681 34.2245 214.884 33.5595 215.293 32.9906C215.706 32.4218 216.273 31.9777 216.994 31.6585C217.714 31.3393 218.532 31.1797 219.449 31.1797C220.382 31.1797 221.197 31.3393 221.892 31.6585C222.592 31.9777 223.136 32.4218 223.525 32.9906C223.914 33.5595 224.114 34.2183 224.127 34.9673H221.579Z" fill="#6AB579"/>
<path d="M226.086 43.9236V31.3516H234.558V33.5431H228.745V36.5388H234.122V38.7303H228.745V41.7321H234.582V43.9236H226.086Z" fill="#6AB579"/>
<path d="M243.491 34.9673C243.442 34.4721 243.231 34.0874 242.859 33.8132C242.487 33.539 241.981 33.4019 241.343 33.4019C240.909 33.4019 240.543 33.4633 240.244 33.5861C239.945 33.7047 239.716 33.8705 239.556 34.0833C239.401 34.2961 239.323 34.5376 239.323 34.8077C239.315 35.0327 239.362 35.2292 239.464 35.397C239.571 35.5648 239.716 35.7101 239.9 35.8328C240.084 35.9515 240.297 36.0559 240.539 36.1459C240.78 36.2318 241.038 36.3055 241.312 36.3669L242.442 36.637C242.99 36.7598 243.493 36.9235 243.952 37.1281C244.41 37.3327 244.807 37.5844 245.143 37.8832C245.478 38.1819 245.738 38.5339 245.922 38.939C246.11 39.3442 246.207 39.8087 246.211 40.3325C246.207 41.1019 246.01 41.769 245.621 42.3337C245.237 42.8944 244.68 43.3302 243.952 43.6413C243.227 43.9482 242.354 44.1017 241.33 44.1017C240.316 44.1017 239.432 43.9462 238.679 43.6351C237.93 43.3241 237.344 42.8637 236.923 42.2539C236.505 41.64 236.286 40.8809 236.266 39.9765H238.838C238.867 40.398 238.988 40.7499 239.2 41.0323C239.417 41.3106 239.706 41.5214 240.066 41.6646C240.43 41.8037 240.841 41.8733 241.3 41.8733C241.75 41.8733 242.141 41.8078 242.472 41.6769C242.808 41.5459 243.068 41.3638 243.252 41.1305C243.436 40.8973 243.528 40.6292 243.528 40.3264C243.528 40.044 243.444 39.8066 243.276 39.6143C243.113 39.4219 242.871 39.2582 242.552 39.1232C242.237 38.9881 241.85 38.8653 241.392 38.7549L240.023 38.4111C238.963 38.1533 238.126 37.7502 237.512 37.2018C236.898 36.6534 236.593 35.9147 236.598 34.9857C236.593 34.2245 236.796 33.5595 237.205 32.9906C237.619 32.4218 238.185 31.9777 238.906 31.6585C239.626 31.3393 240.444 31.1797 241.361 31.1797C242.294 31.1797 243.109 31.3393 243.804 31.6585C244.504 31.9777 245.048 32.4218 245.437 32.9906C245.826 33.5595 246.027 34.2183 246.039 34.9673H243.491Z" fill="#6AB579"/>
<path d="M145.569 68.3803C144.906 68.3803 144.335 68.2238 143.856 67.9107C143.377 67.5976 143.009 67.1664 142.751 66.617C142.493 66.0676 142.364 65.4399 142.364 64.7339C142.364 64.0157 142.496 63.3819 142.76 62.8325C143.027 62.28 143.399 61.8487 143.874 61.5387C144.353 61.2257 144.912 61.0691 145.55 61.0691C146.047 61.0691 146.496 61.1612 146.895 61.3454C147.294 61.5295 147.621 61.7873 147.875 62.1188C148.13 62.4503 148.288 62.8371 148.349 63.2791H147.263C147.18 62.9568 146.996 62.6713 146.71 62.4227C146.428 62.171 146.047 62.0452 145.569 62.0452C145.145 62.0452 144.774 62.1557 144.454 62.3767C144.138 62.5946 143.891 62.9031 143.713 63.3021C143.538 63.698 143.451 64.163 143.451 64.6971C143.451 65.2434 143.537 65.7192 143.709 66.1243C143.884 66.5295 144.129 66.8441 144.445 67.0682C144.764 67.2922 145.139 67.4043 145.569 67.4043C145.851 67.4043 146.107 67.3552 146.338 67.2569C146.568 67.1587 146.763 67.0175 146.922 66.8334C147.082 66.6492 147.195 66.4282 147.263 66.1704H148.349C148.288 66.5878 148.136 66.9638 147.894 67.2984C147.654 67.6299 147.337 67.8938 146.941 68.0903C146.548 68.2836 146.09 68.3803 145.569 68.3803Z" fill="#787878"/>
<path d="M151.024 63.9789V68.233H149.938V58.8039H151.024V62.2662H151.117C151.282 61.9009 151.531 61.6109 151.862 61.396C152.197 61.1781 152.642 61.0691 153.198 61.0691C153.679 61.0691 154.101 61.1658 154.464 61.3592C154.826 61.5495 155.107 61.8426 155.306 62.2385C155.509 62.6314 155.61 63.1317 155.61 63.7395V68.233H154.524V63.8131C154.524 63.2514 154.378 62.8171 154.086 62.5102C153.798 62.2002 153.397 62.0452 152.884 62.0452C152.528 62.0452 152.209 62.1204 151.927 62.2708C151.648 62.4212 151.427 62.6406 151.264 62.9291C151.104 63.2177 151.024 63.5676 151.024 63.9789Z" fill="#787878"/>
<path d="M160.563 68.3803C159.881 68.3803 159.294 68.2299 158.799 67.9291C158.308 67.6253 157.929 67.2017 157.662 66.6584C157.398 66.1121 157.266 65.4767 157.266 64.7523C157.266 64.028 157.398 63.3895 157.662 62.8371C157.929 62.2815 158.301 61.8487 158.776 61.5387C159.255 61.2257 159.814 61.0691 160.452 61.0691C160.821 61.0691 161.184 61.1305 161.543 61.2533C161.903 61.3761 162.229 61.5756 162.524 61.8518C162.819 62.125 163.054 62.4872 163.229 62.9384C163.404 63.3895 163.491 63.9451 163.491 64.605V65.0654H158.04V64.1262H162.386C162.386 63.7272 162.306 63.3711 162.147 63.0581C161.99 62.745 161.766 62.4979 161.474 62.3168C161.186 62.1357 160.845 62.0452 160.452 62.0452C160.02 62.0452 159.645 62.1526 159.329 62.3675C159.016 62.5792 158.775 62.8555 158.606 63.1962C158.437 63.5369 158.353 63.9021 158.353 64.2919V64.9181C158.353 65.4522 158.445 65.9049 158.629 66.2763C158.816 66.6446 159.076 66.9254 159.407 67.1188C159.739 67.3091 160.124 67.4043 160.563 67.4043C160.848 67.4043 161.106 67.3644 161.336 67.2846C161.57 67.2017 161.771 67.0789 161.939 66.9162C162.108 66.7505 162.239 66.5448 162.331 66.2993L163.381 66.594C163.27 66.95 163.084 67.2631 162.823 67.5332C162.563 67.8002 162.24 68.0089 161.857 68.1593C161.473 68.3067 161.042 68.3803 160.563 68.3803Z" fill="#787878"/>
<path d="M168.017 68.3803C167.354 68.3803 166.783 68.2238 166.304 67.9107C165.825 67.5976 165.457 67.1664 165.199 66.617C164.941 66.0676 164.812 65.4399 164.812 64.7339C164.812 64.0157 164.944 63.3819 165.208 62.8325C165.475 62.28 165.847 61.8487 166.322 61.5387C166.801 61.2257 167.36 61.0691 167.998 61.0691C168.496 61.0691 168.944 61.1612 169.343 61.3454C169.742 61.5295 170.069 61.7873 170.323 62.1188C170.578 62.4503 170.736 62.8371 170.798 63.2791H169.711C169.628 62.9568 169.444 62.6713 169.159 62.4227C168.876 62.171 168.496 62.0452 168.017 62.0452C167.593 62.0452 167.222 62.1557 166.903 62.3767C166.586 62.5946 166.339 62.9031 166.161 63.3021C165.986 63.698 165.899 64.163 165.899 64.6971C165.899 65.2434 165.985 65.7192 166.157 66.1243C166.332 66.5295 166.577 66.8441 166.893 67.0682C167.213 67.2922 167.587 67.4043 168.017 67.4043C168.299 67.4043 168.555 67.3552 168.786 67.2569C169.016 67.1587 169.211 67.0175 169.37 66.8334C169.53 66.6492 169.644 66.4282 169.711 66.1704H170.798C170.736 66.5878 170.584 66.9638 170.342 67.2984C170.102 67.6299 169.785 67.8938 169.389 68.0903C168.996 68.2836 168.539 68.3803 168.017 68.3803Z" fill="#787878"/>
<path d="M173.399 65.6547L173.38 64.3104H173.601L176.695 61.1612H178.04L174.743 64.4945H174.651L173.399 65.6547ZM172.386 68.233V58.8039H173.473V68.233H172.386ZM176.88 68.233L174.117 64.7339L174.891 63.9789L178.261 68.233H176.88Z" fill="#787878"/>
<path d="M182.112 68.3803C181.431 68.3803 180.843 68.2299 180.349 67.9291C179.858 67.6253 179.478 67.2017 179.211 66.6584C178.947 66.1121 178.816 65.4767 178.816 64.7523C178.816 64.028 178.947 63.3895 179.211 62.8371C179.478 62.2815 179.85 61.8487 180.326 61.5387C180.804 61.2257 181.363 61.0691 182.002 61.0691C182.37 61.0691 182.734 61.1305 183.093 61.2533C183.452 61.3761 183.779 61.5756 184.073 61.8518C184.368 62.125 184.603 62.4872 184.778 62.9384C184.953 63.3895 185.04 63.9451 185.04 64.605V65.0654H179.589V64.1262H183.935C183.935 63.7272 183.855 63.3711 183.696 63.0581C183.539 62.745 183.315 62.4979 183.024 62.3168C182.735 62.1357 182.394 62.0452 182.002 62.0452C181.569 62.0452 181.194 62.1526 180.878 62.3675C180.565 62.5792 180.324 62.8555 180.155 63.1962C179.986 63.5369 179.902 63.9021 179.902 64.2919V64.9181C179.902 65.4522 179.994 65.9049 180.178 66.2763C180.366 66.6446 180.625 66.9254 180.956 67.1188C181.288 67.3091 181.673 67.4043 182.112 67.4043C182.397 67.4043 182.655 67.3644 182.885 67.2846C183.119 67.2017 183.32 67.0789 183.489 66.9162C183.657 66.7505 183.788 66.5448 183.88 66.2993L184.93 66.594C184.819 66.95 184.633 67.2631 184.373 67.5332C184.112 67.8002 183.789 68.0089 183.406 68.1593C183.022 68.3067 182.591 68.3803 182.112 68.3803Z" fill="#787878"/>
<path d="M189.363 68.3803C188.774 68.3803 188.254 68.2315 187.803 67.9337C187.351 67.6329 186.998 67.2094 186.744 66.663C186.489 66.1136 186.362 65.4644 186.362 64.7155C186.362 63.9727 186.489 63.3282 186.744 62.7818C186.998 62.2355 187.353 61.8134 187.807 61.5157C188.261 61.218 188.786 61.0691 189.382 61.0691C189.842 61.0691 190.206 61.1459 190.473 61.2993C190.743 61.4497 190.949 61.6216 191.09 61.815C191.234 62.0053 191.346 62.1618 191.426 62.2846H191.518V58.8039H192.605V68.233H191.555V67.1464H191.426C191.346 67.2754 191.233 67.438 191.085 67.6345C190.938 67.8278 190.728 68.0013 190.455 68.1547C190.181 68.3051 189.818 68.3803 189.363 68.3803ZM189.511 67.4043C189.947 67.4043 190.315 67.2907 190.616 67.0636C190.916 66.8334 191.145 66.5157 191.302 66.1105C191.458 65.7023 191.536 65.2312 191.536 64.6971C191.536 64.1692 191.46 63.7072 191.306 63.3113C191.153 62.9123 190.926 62.6023 190.625 62.3813C190.324 62.1572 189.953 62.0452 189.511 62.0452C189.05 62.0452 188.667 62.1633 188.36 62.3997C188.056 62.633 187.827 62.9506 187.674 63.3527C187.523 63.7517 187.448 64.1999 187.448 64.6971C187.448 65.2005 187.525 65.6578 187.678 66.0691C187.835 66.4773 188.065 66.8027 188.369 67.0451C188.676 67.2846 189.056 67.4043 189.511 67.4043Z" fill="#787878"/>
<path d="M199.994 68.233L197.839 61.1612H198.981L200.51 66.5755H200.583L202.093 61.1612H203.254L204.745 66.5571H204.819L206.348 61.1612H207.489L205.335 68.233H204.267L202.72 62.8002H202.609L201.062 68.233H199.994Z" fill="#787878"/>
<path d="M208.926 68.233V61.1612H210.012V68.233H208.926ZM209.478 59.9826C209.267 59.9826 209.084 59.9104 208.93 59.7662C208.78 59.6219 208.705 59.4485 208.705 59.2459C208.705 59.0433 208.78 58.8699 208.93 58.7257C209.084 58.5814 209.267 58.5093 209.478 58.5093C209.69 58.5093 209.871 58.5814 210.022 58.7257C210.175 58.8699 210.252 59.0433 210.252 59.2459C210.252 59.4485 210.175 59.6219 210.022 59.7662C209.871 59.9104 209.69 59.9826 209.478 59.9826Z" fill="#787878"/>
<path d="M215.078 61.1612V62.082H211.413V61.1612H215.078ZM212.481 59.4669H213.568V66.2072C213.568 66.5142 213.612 66.7444 213.701 66.8978C213.793 67.0482 213.91 67.1495 214.051 67.2017C214.196 67.2508 214.348 67.2754 214.507 67.2754C214.627 67.2754 214.725 67.2692 214.802 67.2569C214.878 67.2416 214.94 67.2293 214.986 67.2201L215.207 68.1962C215.133 68.2238 215.03 68.2514 214.898 68.279C214.766 68.3097 214.599 68.3251 214.397 68.3251C214.09 68.3251 213.789 68.2591 213.494 68.1271C213.203 67.9951 212.96 67.7941 212.767 67.524C212.576 67.2539 212.481 66.9132 212.481 66.5019V59.4669Z" fill="#787878"/>
<path d="M217.951 63.9789V68.233H216.864V58.8039H217.951V62.2662H218.043C218.209 61.9009 218.457 61.6109 218.789 61.396C219.123 61.1781 219.568 61.0691 220.124 61.0691C220.606 61.0691 221.028 61.1658 221.39 61.3592C221.752 61.5495 222.033 61.8426 222.233 62.2385C222.435 62.6314 222.537 63.1317 222.537 63.7395V68.233H221.45V63.8131C221.45 63.2514 221.304 62.8171 221.013 62.5102C220.724 62.2002 220.324 62.0452 219.811 62.0452C219.455 62.0452 219.136 62.1204 218.853 62.2708C218.574 62.4212 218.353 62.6406 218.19 62.9291C218.031 63.2177 217.951 63.5676 217.951 63.9789Z" fill="#787878"/>
<path d="M129.711 30.1484L120.527 39.1996L116.958 35.6816L114.151 38.4486L120.527 44.734L132.518 32.9155L129.711 30.1484Z" fill="#6AB579"/>
</g>
<defs>
<filter id="filter0_d_265_63" x="-1.06396" y="0.286621" width="126.716" height="126.715" filterUnits="userSpaceOnUse" color-interpolation-filters="sRGB">
<feFlood flood-opacity="0" result="BackgroundImageFix"/>
<feColorMatrix in="SourceAlpha" type="matrix" values="0 0 0 0 0 0 0 0 0 0 0 0 0 0 0 0 0 0 127 0" result="hardAlpha"/>
<feOffset dx="5" dy="5"/>
<feGaussianBlur stdDeviation="15"/>
<feComposite in2="hardAlpha" operator="out"/>
<feColorMatrix type="matrix" values="0 0 0 0 0 0 0 0 0 0 0 0 0 0 0 0 0 0 0.25 0"/>
<feBlend mode="normal" in2="BackgroundImageFix" result="effect1_dropShadow_265_63"/>
<feBlend mode="normal" in="SourceGraphic" in2="effect1_dropShadow_265_63" result="shape"/>
</filter>
<filter id="filter1_d_265_63" x="12.9587" y="14.3092" width="92.6702" height="92.67" filterUnits="userSpaceOnUse" color-interpolation-filters="sRGB">
<feFlood flood-opacity="0" result="BackgroundImageFix"/>
<feColorMatrix in="SourceAlpha" type="matrix" values="0 0 0 0 0 0 0 0 0 0 0 0 0 0 0 0 0 0 127 0" result="hardAlpha"/>
<feOffset dx="2" dy="2"/>
<feGaussianBlur stdDeviation="10"/>
<feComposite in2="hardAlpha" operator="out"/>
<feColorMatrix type="matrix" values="0 0 0 0 0 0 0 0 0 0 0 0 0 0 0 0 0 0 0.25 0"/>
<feBlend mode="normal" in2="BackgroundImageFix" result="effect1_dropShadow_265_63"/>
<feBlend mode="normal" in="SourceGraphic" in2="effect1_dropShadow_265_63" result="shape"/>
</filter>
<linearGradient id="paint0_linear_265_63" x1="148" y1="8" x2="148" y2="109" gradientUnits="userSpaceOnUse">
<stop stop-color="white"/>
<stop offset="1" stop-color="#EFFFF0"/>
</linearGradient>
<clipPath id="clip0_265_63">
<rect width="306" height="115" fill="white"/>
</clipPath>
</defs>
</svg>
